<?xml version="1.0" encoding="UTF-8"?>
<svg width="104px" height="134px" viewBox="0 0 104 134" version="1.1" xmlns="http://www.w3.org/2000/svg" xmlns:xlink="http://www.w3.org/1999/xlink">
    <!-- Generator: Sketch 50.2 (55047) - http://www.bohemiancoding.com/sketch -->
    <title>dashsecure</title>
    <desc>Created with Sketch.</desc>
    <defs></defs>
    <g id="Page-1" stroke="none" stroke-width="1" fill="none" fill-rule="evenodd">
        <g id="Introduction-highlight3" transform="translate(-150.000000, -307.000000)">
            <g id="dashsecure" transform="translate(150.000000, 307.000000)">
                <rect id="Rectangle-3" stroke="#FFFFFF" x="0.5" y="0.5" width="74" height="128.452055" rx="9"></rect>
                <path d="M1.125,111.375 L74.625,111.375" id="Line" stroke="#FFFFFF" stroke-linecap="square"></path>
                <circle id="Oval" stroke="#FFFFFF" cx="37.5" cy="120" r="3.75"></circle>
                <g id="locked" transform="translate(64.000000, 76.000000)" fill="#FFFFFF" fill-rule="nonzero">
                    <path d="M31,21.314 L31,10.22 C31,4.585 26.065,0 20,0 C13.935,0 9,4.585 9,10.22 L9,21.314 C3.584,24.896 0,31.034 0,38 C0,49.028 8.972,58 20,58 C31.028,58 40,49.028 40,38 C40,31.034 36.416,24.896 31,21.314 Z M11,20.157 L11,10.22 C11,5.688 15.037,2 20,2 C24.963,2 29,5.688 29,10.22 L29,20.158 C28.812,20.063 28.62,19.979 28.43,19.89 C28.037,19.706 27.638,19.534 27.232,19.375 C26.971,19.273 26.709,19.177 26.445,19.086 C26.185,18.997 25.927,18.908 25.663,18.83 C25.226,18.7 24.784,18.589 24.339,18.489 C24.146,18.446 23.952,18.405 23.757,18.367 C23.234,18.266 22.708,18.184 22.178,18.125 C22.058,18.112 21.938,18.104 21.818,18.093 C21.213,18.036 20.608,18 20,18 C19.392,18 18.787,18.036 18.184,18.092 C18.064,18.103 17.943,18.111 17.824,18.124 C17.294,18.183 16.768,18.265 16.245,18.366 C16.05,18.403 15.856,18.445 15.663,18.488 C15.218,18.588 14.776,18.699 14.339,18.829 C14.075,18.907 13.816,18.997 13.557,19.085 C13.293,19.176 13.03,19.272 12.77,19.374 C12.363,19.532 11.965,19.705 11.572,19.889 C11.38,19.978 11.188,20.062 11,20.157 Z M24,40 C24,42.206 22.206,44 20,44 C17.794,44 16,42.206 16,40 L16,34 C16,31.794 17.794,30 20,30 C22.206,30 24,31.794 24,34 L24,40 Z" id="Shape"></path>
                </g>
                <g id="Group-2" transform="translate(18.000000, 42.000000)" fill="#FFFFFF" fill-rule="nonzero">
                    <path d="M26.1169971,0 L11.4637864,0 L10.2494026,6.82767811 L23.4721028,6.84371598 C29.9842472,6.84371598 31.9099003,9.22177586 31.8549829,13.1697651 C31.8266384,15.1923189 30.9550456,18.6110584 30.5785955,19.7194535 C29.5750237,22.6739857 27.5138485,26.0455026 19.784663,26.0321377 L6.93132685,26.0267918 L5.71428571,32.8571429 L20.3347231,32.8571429 C25.491647,32.8571429 27.6865727,32.2539407 30.0072771,31.1740574 C35.1562291,28.7826326 38.2200903,23.6710067 39.4468749,17.0001433 C41.2750939,7.06646419 38.9986778,0 26.1169971,0 Z" id="Shape"></path>
                    <path d="M5.28090376,12.8571429 C1.51553335,12.8571429 0.975885292,15.4870553 0.619595916,17.0758056 C0.152943732,19.1571987 0,20 0,20 L14.7190962,20 C18.4844667,20 19.0241147,17.3700875 19.3804041,15.7813373 C19.8470563,13.6999441 20,12.8571429 20,12.8571429 L5.28090376,12.8571429 Z" id="Shape"></path>
                </g>
            </g>
        </g>
    </g>
</svg>