<?xml version="1.0" encoding="utf-8"?>
<!-- Generator: Adobe Illustrator 21.0.0, SVG Export Plug-In . SVG Version: 6.00 Build 0)  -->
<svg version="1.1" id="Layer_1" xmlns="http://www.w3.org/2000/svg" xmlns:xlink="http://www.w3.org/1999/xlink" x="0px" y="0px"
	 viewBox="0 0 247 247" style="enable-background:new 0 0 247 247;" xml:space="preserve">
<style type="text/css">
	.st0{opacity:0.3;fill:url(#Oval-2_1_);enable-background:new    ;}
	.st1{fill:#192C3A;fill-opacity:0.65;stroke:#707D89;stroke-width:2;}
	.st2{fill:none;stroke:#707D89;stroke-width:2;stroke-linecap:square;}
	.st3{fill:#192C3A;stroke:#0069B6;stroke-width:2;}
	.st4{fill:none;stroke:#0069B6;stroke-width:2;}
	.st5{fill:#F9F9F9;stroke:#0069B6;stroke-width:2;}
	.st6{fill:#FFFFFF;}
</style>
<title>tour-control</title>
<desc>Created with Sketch.</desc>
<g id="_x30_.2.3---Tour-3">
	<g id="bg-3">
		
			<linearGradient id="Oval-2_1_" gradientUnits="userSpaceOnUse" x1="-622.9656" y1="871.4656" x2="-622.9656" y2="870.5709" gradientTransform="matrix(247 0 0 -247 153996 215252)">
			<stop  offset="0" style="stop-color:#192C3A"/>
			<stop  offset="1" style="stop-color:#192C3A"/>
		</linearGradient>
		<path id="Oval-2" class="st0" d="M123.5,247c68.2,0,123.5-55.3,123.5-123.5S191.7,0,123.5,0S0,55.3,0,123.5S55.3,247,123.5,247z"
			/>
		<path id="Combined-Shape" class="st1" d="M71,24h83.8c4.4,0,8,3.6,8,8v167.9c0,4.4-3.6,8-8,8H71c-4.4,0-8-3.6-8-8V32
			C63,27.6,66.6,24,71,24z"/>
		<path id="Line" class="st2" d="M63.5,180.6h98.8"/>
		<path id="Line_1_" class="st2" d="M104.1,194.3h18.7"/>
		<g id="Group-3" transform="translate(125.000000, 122.000000)">
			<path id="Rectangle-path" class="st3" d="M4,37.6h66.8c2.2,0,4,1.8,4,4v57.7c0,2.2-1.8,4-4,4H4c-2.2,0-4-1.8-4-4V41.6
				C0,39.4,1.8,37.6,4,37.6z"/>
			<path id="Shape_6_" class="st4" d="M18.7,37.6V18.9c0-10.3,8.4-18.8,18.7-18.8l0,0c10.3,0,18.7,8.4,18.7,18.8v18.8"/>
			<path id="Shape_7_" class="st5" d="M36.6,65.8v9.4"/>
		</g>
	</g>
</g>
<g id="Dash_Icon_Light">
	<path id="D_2_" class="st6" d="M136.3,96.6c0-0.9-0.4-1.7-0.7-2.4c-0.4-0.7-1-1.3-1.8-1.6c-0.7-0.4-1.5-0.6-2.5-0.6H98.2l-2.4,7.1
		h29.9l-4.7,14.5h-2.2h-17.4H91.1l-2.4,7.1h33.2c0.9,0,1.8-0.2,2.9-0.6c1-0.5,2-1.1,2.9-1.8c0.8-0.6,1.6-1.5,2.3-2.4
		c0.6-0.9,1.1-1.8,1.5-2.8l4.4-13.8C136.3,98.5,136.5,97.5,136.3,96.6z"/>
	<polygon id="_x2D__2_" class="st6" points="107.6,103.1 90,103.1 87.6,109.7 105.4,109.7 	"/>
</g>
</svg>
