<?xml version="1.0" encoding="UTF-8"?>
<svg width="76px" height="130px" viewBox="0 0 76 130" version="1.1" xmlns="http://www.w3.org/2000/svg" xmlns:xlink="http://www.w3.org/1999/xlink">
    <!-- Generator: Sketch 50.2 (55047) - http://www.bohemiancoding.com/sketch -->
    <title>scanqr</title>
    <desc>Created with Sketch.</desc>
    <defs></defs>
    <g id="Page-1" stroke="none" stroke-width="1" fill="none" fill-rule="evenodd">
        <g id="Introduction-highlight1" transform="translate(-150.000000, -307.000000)">
            <g id="Group-4" transform="translate(62.000000, 257.000000)">
                <g id="scanqr" transform="translate(88.000000, 50.000000)">
                    <rect id="Rectangle-3" stroke="#FFFFFF" x="0.5" y="0.5" width="74" height="128.452055" rx="9"></rect>
                    <path d="M1.125,111.375 L74.625,111.375" id="Line" stroke="#FFFFFF" stroke-linecap="square"></path>
                    <circle id="Oval" stroke="#FFFFFF" cx="37.5" cy="120" r="3.75"></circle>
                    <g id="qr-code-(1)" transform="translate(13.000000, 38.000000)" fill="#FFFFFF" fill-rule="nonzero">
                        <rect id="Rectangle-path" x="29.6875" y="17.96875" width="1.5625" height="3.90625"></rect>
                        <rect id="Rectangle-path" x="32.8125" y="17.96875" width="1.5625" height="3.90625"></rect>
                        <rect id="Rectangle-path" x="29.6875" y="23.4375" width="1.5625" height="1.5625"></rect>
                        <rect id="Rectangle-path" x="32.8125" y="23.4375" width="1.5625" height="1.5625"></rect>
                        <rect id="Rectangle-path" x="24.21875" y="26.5625" width="1.5625" height="1.5625"></rect>
                        <rect id="Rectangle-path" x="20.3125" y="42.1875" width="1.5625" height="1.5625"></rect>
                        <rect id="Rectangle-path" x="32.8125" y="26.5625" width="1.5625" height="1.5625"></rect>
                        <rect id="Rectangle-path" x="29.6875" y="29.6875" width="1.5625" height="1.5625"></rect>
                        <rect id="Rectangle-path" x="32.8125" y="29.6875" width="1.5625" height="1.5625"></rect>
                        <path d="M1.5625,1.5625 L3.90625,1.5625 L3.90625,0 L0.78125,0 C0.35,0 0,0.35 0,0.78125 L0,3.90625 L1.5625,3.90625 L1.5625,1.5625 Z" id="Shape"></path>
                        <path d="M49.21875,0 L46.09375,0 L46.09375,1.5625 L48.4375,1.5625 L48.4375,3.90625 L50,3.90625 L50,0.78125 C50,0.35 49.65,0 49.21875,0 Z" id="Shape"></path>
                        <path d="M1.5625,46.09375 L0,46.09375 L0,49.21875 C0,49.65 0.35,50 0.78125,50 L3.90625,50 L3.90625,48.4375 L1.5625,48.4375 L1.5625,46.09375 Z" id="Shape"></path>
                        <path d="M48.4375,48.4375 L46.09375,48.4375 L46.09375,50 L49.21875,50 C49.65,50 50,49.65 50,49.21875 L50,46.09375 L48.4375,46.09375 L48.4375,48.4375 Z" id="Shape"></path>
                        <path d="M3.125,3.90625 L3.125,13.28125 C3.125,13.7125 3.475,14.0625 3.90625,14.0625 L13.28125,14.0625 C13.7125,14.0625 14.0625,13.7125 14.0625,13.28125 L14.0625,3.90625 C14.0625,3.475 13.7125,3.125 13.28125,3.125 L3.90625,3.125 C3.475,3.125 3.125,3.475 3.125,3.90625 Z M4.6875,4.6875 L12.5,4.6875 L12.5,12.5 L4.6875,12.5 L4.6875,4.6875 Z" id="Shape"></path>
                        <path d="M10.15625,6.25 L7.03125,6.25 C6.6,6.25 6.25,6.6 6.25,7.03125 L6.25,10.15625 C6.25,10.5875 6.6,10.9375 7.03125,10.9375 L10.15625,10.9375 C10.5875,10.9375 10.9375,10.5875 10.9375,10.15625 L10.9375,7.03125 C10.9375,6.6 10.5875,6.25 10.15625,6.25 Z M9.375,9.375 L7.8125,9.375 L7.8125,7.8125 L9.375,7.8125 L9.375,9.375 Z" id="Shape"></path>
                        <path d="M36.71875,14.0625 L46.09375,14.0625 C46.525,14.0625 46.875,13.7125 46.875,13.28125 L46.875,3.90625 C46.875,3.475 46.525,3.125 46.09375,3.125 L36.71875,3.125 C36.2875,3.125 35.9375,3.475 35.9375,3.90625 L35.9375,13.28125 C35.9375,13.7125 36.2875,14.0625 36.71875,14.0625 Z M37.5,4.6875 L45.3125,4.6875 L45.3125,12.5 L37.5,12.5 L37.5,4.6875 Z" id="Shape"></path>
                        <path d="M42.96875,6.25 L39.84375,6.25 C39.4125,6.25 39.0625,6.6 39.0625,7.03125 L39.0625,10.15625 C39.0625,10.5875 39.4125,10.9375 39.84375,10.9375 L42.96875,10.9375 C43.4,10.9375 43.75,10.5875 43.75,10.15625 L43.75,7.03125 C43.75,6.6 43.4,6.25 42.96875,6.25 Z M42.1875,9.375 L40.625,9.375 L40.625,7.8125 L42.1875,7.8125 L42.1875,9.375 Z" id="Shape"></path>
                        <path d="M13.28125,35.9375 L3.90625,35.9375 C3.475,35.9375 3.125,36.2875 3.125,36.71875 L3.125,46.09375 C3.125,46.525 3.475,46.875 3.90625,46.875 L13.28125,46.875 C13.7125,46.875 14.0625,46.525 14.0625,46.09375 L14.0625,36.71875 C14.0625,36.2875 13.7125,35.9375 13.28125,35.9375 Z M12.5,45.3125 L4.6875,45.3125 L4.6875,37.5 L12.5,37.5 L12.5,45.3125 Z" id="Shape"></path>
                        <path d="M7.03125,43.75 L10.15625,43.75 C10.5875,43.75 10.9375,43.4 10.9375,42.96875 L10.9375,39.84375 C10.9375,39.4125 10.5875,39.0625 10.15625,39.0625 L7.03125,39.0625 C6.6,39.0625 6.25,39.4125 6.25,39.84375 L6.25,42.96875 C6.25,43.4 6.6,43.75 7.03125,43.75 Z M7.8125,40.625 L9.375,40.625 L9.375,42.1875 L7.8125,42.1875 L7.8125,40.625 Z" id="Shape"></path>
                        <path d="M34.375,14.84375 L28.90625,14.84375 L28.90625,5.46875 L27.34375,5.46875 L27.34375,15.625 C27.34375,16.05625 27.69375,16.40625 28.125,16.40625 L34.375,16.40625 L34.375,14.84375 Z" id="Shape"></path>
                        <rect id="Rectangle-path" x="17.1875" y="9.375" width="5.46875" height="1.5625"></rect>
                        <rect id="Rectangle-path" x="20.3125" y="6.25" width="5.46875" height="1.5625"></rect>
                        <rect id="Rectangle-path" x="3.125" y="14.84375" width="1.5625" height="7.03125"></rect>
                        <path d="M14.0625,19.53125 L6.25,19.53125 L6.25,21.09375 L13.28125,21.09375 L13.28125,24.21875 L14.84375,24.21875 L14.84375,20.3125 C14.84375,19.88125 14.49375,19.53125 14.0625,19.53125 Z" id="Shape"></path>
                        <rect id="Rectangle-path" x="7.03125" y="15.625" width="1.5625" height="1.5625"></rect>
                        <rect id="Rectangle-path" x="16.40625" y="14.0625" width="1.5625" height="6.25"></rect>
                        <rect id="Rectangle-path" x="16.40625" y="21.875" width="7.03125" height="1.5625"></rect>
                        <path d="M47.65625,22.65625 L46.09375,22.65625 L46.09375,30.46875 L43.75,30.46875 L43.75,32.03125 L46.875,32.03125 C47.30625,32.03125 47.65625,31.68125 47.65625,31.25 L47.65625,22.65625 Z" id="Shape"></path>
                        <rect id="Rectangle-path" x="20.3125" y="14.0625" width="1.5625" height="1.5625"></rect>
                        <rect id="Rectangle-path" x="3.125" y="25.78125" width="1.5625" height="6.25"></rect>
                        <rect id="Rectangle-path" x="3.125" y="32.8125" width="7.03125" height="1.5625"></rect>
                        <path d="M39.0625,21.875 L40.625,21.875 L40.625,18.75 C40.625,18.31875 40.275,17.96875 39.84375,17.96875 L35.9375,17.96875 L35.9375,19.53125 L39.0625,19.53125 L39.0625,21.875 Z" id="Shape"></path>
                        <rect id="Rectangle-path" x="7.03125" y="25.78125" width="1.5625" height="1.5625"></rect>
                        <rect id="Rectangle-path" x="15.625" y="25" width="1.5625" height="6.25"></rect>
                        <rect id="Rectangle-path" x="15.625" y="32.8125" width="7.03125" height="1.5625"></rect>
                        <rect id="Rectangle-path" x="6.25" y="29.6875" width="7.03125" height="1.5625"></rect>
                        <rect id="Rectangle-path" x="16.40625" y="40.625" width="1.5625" height="3.125"></rect>
                        <rect id="Rectangle-path" x="15.625" y="37.5" width="7.03125" height="1.5625"></rect>
                        <path d="M28.125,34.375 L28.125,30.46875 C28.125,30.0375 27.775,29.6875 27.34375,29.6875 L19.53125,29.6875 L19.53125,31.25 L26.5625,31.25 L26.5625,34.375 L28.125,34.375 Z" id="Shape"></path>
                        <rect id="Rectangle-path" x="20.3125" y="25" width="1.5625" height="1.5625"></rect>
                        <rect id="Rectangle-path" x="11.71875" y="26.5625" width="1.5625" height="1.5625"></rect>
                        <rect id="Rectangle-path" x="46.09375" y="41.40625" width="1.5625" height="5.46875"></rect>
                        <rect id="Rectangle-path" x="42.1875" y="45.3125" width="2.34375" height="1.5625"></rect>
                        <rect id="Rectangle-path" x="42.1875" y="40.625" width="1.5625" height="3.125"></rect>
                        <path d="M47.65625,34.375 C47.65625,33.94375 47.30625,33.59375 46.875,33.59375 L38.28125,33.59375 L38.28125,35.15625 L46.09375,35.15625 L46.09375,39.84375 L47.65625,39.84375 L47.65625,34.375 Z" id="Shape"></path>
                        <path d="M37.5,43.75 L37.5,39.84375 C37.5,39.4125 37.15,39.0625 36.71875,39.0625 L28.125,39.0625 L28.125,40.625 L35.9375,40.625 L35.9375,43.75 L37.5,43.75 Z" id="Shape"></path>
                        <rect id="Rectangle-path" x="39.0625" y="36.71875" width="5.46875" height="1.5625"></rect>
                        <rect id="Rectangle-path" x="15.625" y="45.3125" width="5.46875" height="1.5625"></rect>
                        <rect id="Rectangle-path" x="23.4375" y="39.84375" width="1.5625" height="7.03125"></rect>
                        <rect id="Rectangle-path" x="25" y="35.9375" width="3.125" height="1.5625"></rect>
                        <path d="M36.71875,28.125 L40.625,28.125 L40.625,26.5625 L37.5,26.5625 L37.5,21.875 L35.9375,21.875 L35.9375,27.34375 C35.9375,27.775 36.2875,28.125 36.71875,28.125 Z" id="Shape"></path>
                        <rect id="Rectangle-path" x="39.0625" y="23.4375" width="3.90625" height="1.5625"></rect>
                        <rect id="Rectangle-path" x="42.1875" y="15.625" width="2.34375" height="1.5625"></rect>
                        <rect id="Rectangle-path" x="46.09375" y="15.625" width="1.5625" height="3.90625"></rect>
                        <rect id="Rectangle-path" x="42.1875" y="19.53125" width="1.5625" height="1.5625"></rect>
                        <path d="M30.46875,13.28125 L33.59375,13.28125 C34.025,13.28125 34.375,12.93125 34.375,12.5 L34.375,2.34375 L32.8125,2.34375 L32.8125,11.71875 L30.46875,11.71875 L30.46875,13.28125 Z" id="Shape"></path>
                        <path d="M18.75,3.90625 L30.46875,3.90625 L30.46875,2.34375 L17.96875,2.34375 C17.5375,2.34375 17.1875,2.69375 17.1875,3.125 L17.1875,7.03125 L18.75,7.03125 L18.75,3.90625 Z" id="Shape"></path>
                        <path d="M19.53125,18.75 L25,18.75 C25.43125,18.75 25.78125,18.4 25.78125,17.96875 L25.78125,11.71875 L24.21875,11.71875 L24.21875,17.1875 L19.53125,17.1875 L19.53125,18.75 Z" id="Shape"></path>
                        <rect id="Rectangle-path" x="26.5625" y="17.96875" width="1.5625" height="3.125"></rect>
                        <rect id="Rectangle-path" x="28.125" y="42.1875" width="5.46875" height="1.5625"></rect>
                        <rect id="Rectangle-path" x="28.125" y="45.3125" width="7.03125" height="1.5625"></rect>
                        <path d="M39.0625,45.3125 L37.5,45.3125 L37.5,46.875 L39.84375,46.875 C40.275,46.875 40.625,46.525 40.625,46.09375 L40.625,39.84375 L39.0625,39.84375 L39.0625,45.3125 Z" id="Shape"></path>
                        <rect id="Rectangle-path" x="12.5" y="32.8125" width="1.5625" height="1.5625"></rect>
                        <rect id="Rectangle-path" x="30.46875" y="32.8125" width="3.125" height="1.5625"></rect>
                        <rect id="Rectangle-path" x="35.9375" y="29.6875" width="1.5625" height="2.34375"></rect>
                        <rect id="Rectangle-path" x="35.15625" y="33.59375" width="1.5625" height="1.5625"></rect>
                        <rect id="Rectangle-path" x="30.46875" y="35.9375" width="2.34375" height="1.5625"></rect>
                        <rect id="Rectangle-path" x="39.0625" y="29.6875" width="1.5625" height="1.5625"></rect>
                        <rect id="Rectangle-path" x="42.1875" y="26.5625" width="2.34375" height="1.5625"></rect>
                        <rect id="Rectangle-path" x="27.34375" y="26.5625" width="3.90625" height="1.5625"></rect>
                        <rect id="Rectangle-path" x="26.5625" y="22.65625" width="1.5625" height="2.34375"></rect>
                    </g>
                </g>
            </g>
        </g>
    </g>
</svg>