<?xml version="1.0" encoding="UTF-8"?>
<svg width="172px" height="72px" viewBox="0 0 172 72" version="1.1" xmlns="http://www.w3.org/2000/svg" xmlns:xlink="http://www.w3.org/1999/xlink">
    <!-- Generator: Sketch 50.2 (55047) - http://www.bohemiancoding.com/sketch -->
    <title>DashCopay</title>
    <desc>Created with Sketch.</desc>
    <defs></defs>
    <g id="Page-1" stroke="none" stroke-width="1" fill="none" fill-rule="evenodd">
        <g id="Introduction" transform="translate(-102.000000, -297.000000)" fill="#FFFFFF">
            <g id="DashCopay" transform="translate(102.000000, 297.000000)">
                <g id="dash_logo_2018_rgb_for_screens" fill-rule="nonzero">
                    <path d="M100,46 L101.441443,37.6392826 L118.911828,37.6392826 C120.284042,37.6392826 121.245828,36.8023324 121.451042,35.4095069 C121.725484,34.0154266 121.039378,33.1797313 119.667164,33.1797313 L111.313966,33.1797313 C104.72363,33.1797313 101.566302,29.2785651 102.733302,22.5892383 C103.900302,15.8999114 108.43108,12 115.02018,12 L134,12 L132.490565,20.3607174 L115.763153,20.3607174 C114.389703,20.3607174 113.429153,21.1964128 113.222703,22.5892383 C112.94826,23.9833186 113.634367,24.8190139 115.007817,24.8190139 L123.361015,24.8190139 C129.950115,24.8190139 133.107443,28.7214349 131.941679,35.4095069 C130.775915,42.097579 126.311893,46 119.722794,46 L100,46 Z" id="Shape"></path>
                    <path d="M72.4494912,45.9987454 C61.4191741,45.9987454 56.4621943,40.0067159 58.4170773,28.9987454 C60.3028165,17.9920295 67.4233676,12 78.4524276,12 L98,12 L91.9958064,46 L72.4494912,45.9987454 Z M86,20 L80.9404716,20 C74.9006596,20 71.3273677,22.7579696 70.2787804,28.9993465 C69.1555651,35.2420304 71.4032606,38 77.4430726,38 L82.9781967,38 L86,20 Z" id="Shape"></path>
                    <path d="M156.751319,45.9937668 L160.247551,26.3329088 C160.877049,22.4558389 159.288196,20.7953061 155.372718,20.7953061 L149.805437,20.7953061 L145.330965,45.9937668 L134,45.9937668 L142.192288,0 L153.523253,0 L151.342672,12.2171333 L159.828305,12.2171333 C169.75549,12.2171333 173.320967,16.5093363 171.57348,26.339142 L168.077248,46 L156.751319,45.9937668 Z" id="Shape"></path>
                    <g id="Group-2">
                        <path d="M36.563796,0 L16.049301,0 L14.3491636,9.55874936 L32.8609439,9.58120238 C41.9779461,9.58120238 44.6738605,12.9104862 44.5969761,18.4376712 C44.5572938,21.2692464 43.3370639,26.0554817 42.8100337,27.6072349 C41.4050332,31.74358 38.519388,36.4637037 27.6985282,36.4449928 L9.70385759,36.4375085 L8,46 L28.4686123,46 C35.6883058,46 38.7612018,45.155517 42.0101879,43.6436803 C49.2187208,40.2956857 53.5081264,33.1394094 55.2256248,23.8002007 C57.7851314,9.89304987 54.5981489,0 36.563796,0 Z" id="Shape"></path>
                        <path d="M7.39326526,18 C2.12174669,18 1.36623941,21.6818774 0.867434282,23.9061278 C0.214121225,26.8200782 0,28 0,28 L20.6067347,28 C25.8782533,28 26.6337606,24.3181226 27.1325657,22.0938722 C27.7858788,19.1799218 28,18 28,18 L7.39326526,18 Z" id="Shape"></path>
                    </g>
                </g>
                <path d="M113.092,68.144 C111.843994,68.144 110.770004,67.9220022 109.87,67.478 C108.969995,67.0339978 108.280002,66.413004 107.8,65.615 C107.319998,64.816996 107.08,63.8900053 107.08,62.834 C107.08,61.429993 107.397997,60.1520058 108.034,59 C108.670003,57.8479942 109.572994,56.9360034 110.743,56.264 C111.913006,55.5919966 113.265992,55.256 114.802,55.256 C115.846005,55.256 116.769996,55.4269983 117.574,55.769 C118.378004,56.1110017 118.995998,56.5939969 119.428,57.218 L118.132,58.334 C117.375996,57.3499951 116.224008,56.858 114.676,56.858 C113.511994,56.858 112.492004,57.1219974 111.616,57.65 C110.739996,58.1780026 110.065002,58.8889955 109.591,59.783 C109.116998,60.6770045 108.88,61.6579947 108.88,62.726 C108.88,63.8900058 109.254996,64.8169965 110.005,65.507 C110.755004,66.1970034 111.825993,66.542 113.218,66.542 C114.766008,66.542 116.037995,66.044005 117.034,65.048 L118.078,66.236 C117.501997,66.8600031 116.785004,67.3339984 115.927,67.658 C115.068996,67.9820016 114.124005,68.144 113.092,68.144 Z M124.024,68.108 C123.123996,68.108 122.338003,67.9370017 121.666,67.595 C120.993997,67.2529983 120.472002,66.7700031 120.1,66.146 C119.727998,65.5219969 119.542,64.8020041 119.542,63.986 C119.542,62.9179947 119.781998,61.9580043 120.262,61.106 C120.742002,60.2539957 121.407996,59.5850024 122.26,59.099 C123.112004,58.6129976 124.071995,58.37 125.14,58.37 C126.040005,58.37 126.825997,58.5379983 127.498,58.874 C128.170003,59.2100017 128.688998,59.6869969 129.055,60.305 C129.421002,60.9230031 129.604,61.6459959 129.604,62.474 C129.604,63.5420053 129.364002,64.5049957 128.884,65.363 C128.403998,66.2210043 127.741004,66.8929976 126.895,67.379 C126.048996,67.8650024 125.092005,68.108 124.024,68.108 Z M124.132,66.596 C124.840004,66.596 125.478997,66.4250017 126.049,66.083 C126.619003,65.7409983 127.062999,65.2640031 127.381,64.652 C127.699002,64.0399969 127.858,63.3440039 127.858,62.564 C127.858,61.7119957 127.612003,61.0520023 127.12,60.584 C126.627998,60.1159977 125.926005,59.882 125.014,59.882 C124.305997,59.882 123.670003,60.0529983 123.106,60.395 C122.541997,60.7370017 122.098002,61.2139969 121.774,61.826 C121.449998,62.4380031 121.288,63.1339961 121.288,63.914 C121.288,64.7540042 121.536998,65.4109976 122.035,65.885 C122.533003,66.3590024 123.231996,66.596 124.132,66.596 Z M137.908,58.37 C138.724004,58.37 139.449997,58.5349983 140.086,58.865 C140.722003,59.1950016 141.219998,59.6689969 141.58,60.287 C141.940002,60.9050031 142.12,61.6339958 142.12,62.474 C142.12,63.5540054 141.886003,64.5199957 141.418,65.372 C140.949998,66.2240043 140.305004,66.8929976 139.483,67.379 C138.660996,67.8650024 137.740005,68.108 136.72,68.108 C135.903996,68.108 135.202003,67.9610015 134.614,67.667 C134.025997,67.3729985 133.576002,66.9440028 133.264,66.38 L132.256,71.492 L130.528,71.492 L133.12,58.46 L134.776,58.46 L134.542,59.648 C135.430005,58.7959957 136.551993,58.37 137.908,58.37 Z M136.648,66.596 C137.356004,66.596 137.991997,66.4250017 138.556,66.083 C139.120003,65.7409983 139.563999,65.2640031 139.888,64.652 C140.212002,64.0399969 140.374,63.3440039 140.374,62.564 C140.374,61.7119957 140.128003,61.0520023 139.636,60.584 C139.143998,60.1159977 138.442005,59.882 137.53,59.882 C136.821997,59.882 136.183003,60.0529983 135.613,60.395 C135.042997,60.7370017 134.599002,61.2139969 134.281,61.826 C133.962999,62.4380031 133.804,63.1339961 133.804,63.914 C133.804,64.7540042 134.052998,65.4109976 134.551,65.885 C135.049003,66.3590024 135.747996,66.596 136.648,66.596 Z M154.618,58.46 L152.728,68 L151.072,68 L151.306,66.83 C150.873998,67.238002 150.373003,67.5529989 149.803,67.775 C149.232997,67.9970011 148.612004,68.108 147.94,68.108 C147.123996,68.108 146.398003,67.9430016 145.762,67.613 C145.125997,67.2829983 144.628002,66.8060031 144.268,66.182 C143.907998,65.5579969 143.728,64.8260042 143.728,63.986 C143.728,62.9059946 143.961998,61.9400043 144.43,61.088 C144.898003,60.2359957 145.542996,59.5700024 146.365,59.09 C147.187004,58.6099976 148.107995,58.37 149.128,58.37 C149.944004,58.37 150.642997,58.5139986 151.225,58.802 C151.807003,59.0900014 152.253999,59.5159972 152.566,60.08 L152.89,58.46 L154.618,58.46 Z M148.318,66.596 C149.026004,66.596 149.664997,66.4250017 150.235,66.083 C150.805003,65.7409983 151.248999,65.2640031 151.567,64.652 C151.885002,64.0399969 152.044,63.3440039 152.044,62.564 C152.044,61.7119957 151.798003,61.0520023 151.306,60.584 C150.813998,60.1159977 150.112005,59.882 149.2,59.882 C148.491997,59.882 147.856003,60.0529983 147.292,60.395 C146.727997,60.7370017 146.284002,61.2139969 145.96,61.826 C145.635999,62.4380031 145.474,63.1339961 145.474,63.914 C145.474,64.7540042 145.722998,65.4109976 146.221,65.885 C146.719003,66.3590024 147.417996,66.596 148.318,66.596 Z M166.594,58.46 L159.826,69.044 C159.213997,70.0040048 158.632003,70.6699981 158.08,71.042 C157.527998,71.4140019 156.874004,71.6 156.118,71.6 C155.649998,71.6 155.194003,71.5250008 154.75,71.375 C154.305998,71.2249992 153.964002,71.0180013 153.724,70.754 L154.624,69.476 C155.056003,69.9080022 155.595997,70.124 156.244,70.124 C156.652002,70.124 157.011999,70.0160011 157.324,69.8 C157.636002,69.5839989 157.959999,69.2180026 158.296,68.702 L158.782,67.946 L156.478,58.46 L158.206,58.46 L160.042,66.092 L164.848,58.46 L166.594,58.46 Z" id="Copay"></path>
            </g>
        </g>
    </g>
</svg>
