<?xml version="1.0" encoding="utf-8"?>
<!-- Generator: Adobe Illustrator 21.0.0, SVG Export Plug-In . SVG Version: 6.00 Build 0)  -->
<svg version="1.1" id="Dash_Logo" xmlns="http://www.w3.org/2000/svg" xmlns:xlink="http://www.w3.org/1999/xlink" x="0px" y="0px"
	 viewBox="0 0 1000 500" style="enable-background:new 0 0 1000 500;" xml:space="preserve">
<style type="text/css">
	.st0{fill:#FFFFFF;}
</style>
<polygon id="H_1_" class="st0" points="811.1,195.7 797.4,237.4 724.2,237.4 737.9,195.7 698.9,195.7 663.4,303.8 702.3,303.8 
	716,262.1 789.2,262.1 775.5,303.8 814.5,303.8 850,195.7 "/>
<path id="S_1_" class="st0" d="M656.5,245.6c-2-2.7-4-4.7-6.8-6.1c-2.7-1.4-6.1-2.1-9.6-2.1h-85.4l4.8-15h112.2l8.9-26.7H556.1
	c-3.5,0-7.5,0.7-11,2.1c-4,1.4-7.5,3.4-10.8,6.2c-2.8,2.7-6.2,5.5-8.3,8.9c-2.7,3.4-4.7,7.5-6.1,10.9l-3.4,10.2
	c-0.8,4.1-1.5,7.5-1.4,11c0.6,3.4,1.4,6.8,2.8,8.9c2,2.7,4.1,4.8,6.8,6.2c2.7,1.4,6.1,2.7,9.6,2.7h85.5l-4.8,14.4H502.7l-8.8,26.7
	h124.4c3.5,0,7.5-0.7,11-2.1c4-1.4,7.4-3.4,10.9-6.2c2.8-2.7,6.2-5.5,8.3-8.9c2.7-3.4,4.7-7.5,6.1-10.9l3.4-10.2
	c1.4-4.1,1.4-7.5,1.4-11C658.6,251.1,657.9,247.8,656.5,245.6z"/>
<path id="A_1_" class="st0" d="M503.4,212.2c-0.6-3.4-1.4-6.2-3.3-8.3c-1.4-2.7-3.5-4.7-6.2-6.1c-2.7-1.4-6.1-2.1-9.6-2.1h-97.7
	c-3.5,0-7.5,0.7-11,2.1c-4,1.4-7.5,3.4-10.9,6.2c-2.8,2.7-6.2,5.5-8.3,8.9c-2.7,3.4-4.8,7.5-6.1,10.9l-26,80h39l26.7-81.3h73.8
	l-8.1,23.9h-51.9l-8.2,25.3h51.9l-10.3,32.2h38.4l26.6-80.7C503.4,219,503.5,215.6,503.4,212.2z"/>
<path id="D_4_" class="st0" d="M333.2,212.9c-0.1-3.4-1.4-6.2-2.7-8.9c-1.4-2.7-3.5-4.8-6.8-6.2c-2.7-1.4-5.5-2.1-9.6-2.1H189.7
	l-8.9,26.7h112.7l-17.8,54.6h-8.2H202h-39l-8.9,26.7h125c3.4,0,6.9-0.7,10.9-2.1c3.5-2,7.5-4,10.9-6.7c2.8-2.1,6.2-5.5,8.9-8.9
	c2.1-3.4,4.2-6.8,5.5-10.3l16.5-51.9C333.2,220.3,333.9,216.3,333.2,212.9z"/>
<polygon id="_x2D__4_" class="st0" points="225.2,237.4 158.9,237.4 150,262.1 217,262.1 "/>
</svg>
