<?xml version="1.0" encoding="UTF-8"?>
<svg width="84px" height="23px" viewBox="0 0 84 23" version="1.1" xmlns="http://www.w3.org/2000/svg" xmlns:xlink="http://www.w3.org/1999/xlink">
    <!-- Generator: Sketch 50.2 (55047) - http://www.bohemiancoding.com/sketch -->
    <title>dash_logo_2018_rgb_for_screens</title>
    <desc>Created with Sketch.</desc>
    <defs></defs>
    <g id="Page-1" stroke="none" stroke-width="1" fill="none" fill-rule="evenodd">
        <g id="Home---home-with-message" transform="translate(-146.000000, -31.000000)" fill="#FFFFFF" fill-rule="nonzero">
            <g id="dash_logo_2018_rgb_for_screens" transform="translate(146.000000, 31.000000)">
                <path d="M48.8372093,22.4651163 L49.5411697,18.3819752 L58.0732182,18.3819752 C58.7433692,18.3819752 59.2130787,17.9732321 59.3132994,17.293015 C59.4473296,16.6121851 59.1122541,16.2040548 58.4421031,16.2040548 L54.3626344,16.2040548 C51.1440984,16.2040548 49.6021474,14.2988341 50.1720776,11.0319536 C50.7420078,7.76507302 52.9547136,5.86046512 56.1726459,5.86046512 L65.4418605,5.86046512 L64.7046944,9.9436062 L56.5354934,9.9436062 C55.8647386,9.9436062 55.3956329,10.3517365 55.2948084,11.0319536 C55.1607782,11.7127835 55.4958537,12.1209138 56.1666085,12.1209138 L60.2460772,12.1209138 C63.4640094,12.1209138 65.0059604,14.0267473 64.436634,17.293015 C63.8673075,20.5592828 61.6872037,22.4651163 58.4692714,22.4651163 L48.8372093,22.4651163 Z" id="Shape"></path>
                <path d="M35.3823096,22.4645036 C29.9954106,22.4645036 27.57456,19.5381636 28.5292703,14.162178 C29.4502127,8.78680511 32.9276912,5.86046512 38.3139763,5.86046512 L47.8604651,5.86046512 L44.9281845,22.4651163 L35.3823096,22.4645036 Z M42,9.76744186 L39.5290675,9.76744186 C36.5793919,9.76744186 34.8342958,11.1143573 34.3221951,14.1624715 C33.7736481,17.2112241 34.8713598,18.5581395 37.8210355,18.5581395 L40.5242356,18.5581395 L42,9.76744186 Z" id="Shape"></path>
                <path d="M76.5529697,22.4620721 L78.2604319,12.8602578 C78.5678612,10.966805 77.7919097,10.1558472 75.8796996,10.1558472 L73.160795,10.1558472 L70.9755876,22.4620721 L65.4418605,22.4620721 L69.4427452,0 L74.9764723,0 L73.9115373,5.96650694 L78.055684,5.96650694 C82.9038439,5.96650694 84.6451233,8.06269912 83.7916997,12.8633019 L82.0842374,22.4651163 L76.5529697,22.4620721 Z" id="Shape"></path>
                <g id="Group-2">
                    <path d="M17.8567376,0 L7.83803073,0 L7.00773108,4.66822643 L16.0483679,4.67919186 C20.5008574,4.67919186 21.8174667,6.30512117 21.7799185,9.00444406 C21.7605388,10.3873064 21.1646126,12.7247702 20.9072258,13.4826031 C20.2210627,15.5026786 18.8117941,17.8078553 13.5271882,17.7987174 L4.73909324,17.7950623 L3.90697674,22.4651163 L13.9032758,22.4651163 C17.4291726,22.4651163 18.9298893,22.0526943 20.5166034,21.3143555 C24.0370497,19.6792883 26.1318757,16.1843627 26.970654,11.6233538 C28.2206456,4.83148947 26.6642122,0 17.8567376,0 Z" id="Shape"></path>
                    <path d="M3.61066443,8.79069767 C1.03620187,8.79069767 0.6672332,10.5888239 0.423630696,11.6750857 C0.104570831,13.0981777 0,13.6744186 0,13.6744186 L10.0637542,13.6744186 C12.6382167,13.6744186 13.0071854,11.8762924 13.2507879,10.7900306 C13.5698478,9.36693854 13.6744186,8.79069767 13.6744186,8.79069767 L3.61066443,8.79069767 Z" id="Shape"></path>
                </g>
            </g>
        </g>
    </g>
</svg>