<?xml version="1.0" encoding="UTF-8"?>
<svg width="172px" height="73px" viewBox="0 0 172 73" version="1.1" xmlns="http://www.w3.org/2000/svg" xmlns:xlink="http://www.w3.org/1999/xlink">
    <!-- Generator: Sketch 50.2 (55047) - http://www.bohemiancoding.com/sketch -->
    <title>Group 3</title>
    <desc>Created with Sketch.</desc>
    <defs></defs>
    <g id="Page-1" stroke="none" stroke-width="1" fill="none" fill-rule="evenodd">
        <g id="Introduction" transform="translate(-102.000000, -297.000000)" fill="#FFFFFF">
            <g id="Group-3" transform="translate(102.000000, 297.000000)">
                <g id="dash_logo_2018_rgb_for_screens" fill-rule="nonzero">
                    <path d="M100,46 L101.441443,37.6392826 L118.911828,37.6392826 C120.284042,37.6392826 121.245828,36.8023324 121.451042,35.4095069 C121.725484,34.0154266 121.039378,33.1797313 119.667164,33.1797313 L111.313966,33.1797313 C104.72363,33.1797313 101.566302,29.2785651 102.733302,22.5892383 C103.900302,15.8999114 108.43108,12 115.02018,12 L134,12 L132.490565,20.3607174 L115.763153,20.3607174 C114.389703,20.3607174 113.429153,21.1964128 113.222703,22.5892383 C112.94826,23.9833186 113.634367,24.8190139 115.007817,24.8190139 L123.361015,24.8190139 C129.950115,24.8190139 133.107443,28.7214349 131.941679,35.4095069 C130.775915,42.097579 126.311893,46 119.722794,46 L100,46 Z" id="Shape"></path>
                    <path d="M72.4494912,45.9987454 C61.4191741,45.9987454 56.4621943,40.0067159 58.4170773,28.9987454 C60.3028165,17.9920295 67.4233676,12 78.4524276,12 L98,12 L91.9958064,46 L72.4494912,45.9987454 Z M86,20 L80.9404716,20 C74.9006596,20 71.3273677,22.7579696 70.2787804,28.9993465 C69.1555651,35.2420304 71.4032606,38 77.4430726,38 L82.9781967,38 L86,20 Z" id="Shape"></path>
                    <path d="M156.751319,45.9937668 L160.247551,26.3329088 C160.877049,22.4558389 159.288196,20.7953061 155.372718,20.7953061 L149.805437,20.7953061 L145.330965,45.9937668 L134,45.9937668 L142.192288,0 L153.523253,0 L151.342672,12.2171333 L159.828305,12.2171333 C169.75549,12.2171333 173.320967,16.5093363 171.57348,26.339142 L168.077248,46 L156.751319,45.9937668 Z" id="Shape"></path>
                    <g id="Group-2">
                        <path d="M36.563796,0 L16.049301,0 L14.3491636,9.55874936 L32.8609439,9.58120238 C41.9779461,9.58120238 44.6738605,12.9104862 44.5969761,18.4376712 C44.5572938,21.2692464 43.3370639,26.0554817 42.8100337,27.6072349 C41.4050332,31.74358 38.519388,36.4637037 27.6985282,36.4449928 L9.70385759,36.4375085 L8,46 L28.4686123,46 C35.6883058,46 38.7612018,45.155517 42.0101879,43.6436803 C49.2187208,40.2956857 53.5081264,33.1394094 55.2256248,23.8002007 C57.7851314,9.89304987 54.5981489,0 36.563796,0 Z" id="Shape"></path>
                        <path d="M7.39326526,18 C2.12174669,18 1.36623941,21.6818774 0.867434282,23.9061278 C0.214121225,26.8200782 0,28 0,28 L20.6067347,28 C25.8782533,28 26.6337606,24.3181226 27.1325657,22.0938722 C27.7858788,19.1799218 28,18 28,18 L7.39326526,18 Z" id="Shape"></path>
                    </g>
                </g>
                <path d="M107.128,72.18 C105.867994,72.18 104.779005,71.9550023 103.861,71.505 C102.942995,71.0549977 102.238002,70.4220041 101.746,69.606 C101.253998,68.7899959 101.008,67.8540053 101.008,66.798 C101.008,65.3819929 101.331997,64.0980058 101.98,62.946 C102.628003,61.7939942 103.539994,60.8850033 104.716,60.219 C105.892006,59.5529967 107.241992,59.22 108.766,59.22 C109.858005,59.22 110.820996,59.3999982 111.655,59.76 C112.489004,60.1200018 113.121998,60.6419966 113.554,61.326 L111.862,62.748 C111.153996,61.7639951 110.068007,61.272 108.604,61.272 C107.559995,61.272 106.642004,61.5119976 105.85,61.992 C105.057996,62.4720024 104.446002,63.1229959 104.014,63.945 C103.581998,64.7670041 103.366,65.6699951 103.366,66.654 C103.366,67.7220053 103.707997,68.5679969 104.392,69.192 C105.076003,69.8160031 106.047994,70.128 107.308,70.128 C108.760007,70.128 109.953995,69.6420049 110.89,68.67 L112.258,70.146 C111.657997,70.8300034 110.920004,71.3399983 110.044,71.676 C109.167996,72.0120017 108.196005,72.18 107.128,72.18 Z M120.094,72.18 C118.845994,72.18 117.769005,71.9550023 116.863,71.505 C115.956996,71.0549977 115.264002,70.425004 114.784,69.615 C114.303998,68.8049959 114.064,67.8660053 114.064,66.798 C114.064,65.3819929 114.384997,64.0980058 115.027,62.946 C115.669003,61.7939942 116.577994,60.8850033 117.754,60.219 C118.930006,59.5529967 120.273993,59.22 121.786,59.22 C123.034006,59.22 124.110996,59.4449977 125.017,59.895 C125.923005,60.3450022 126.615998,60.9749959 127.096,61.785 C127.576002,62.5950041 127.816,63.5339947 127.816,64.602 C127.816,66.0180071 127.495003,67.3019942 126.853,68.454 C126.210997,69.6060058 125.302006,70.5149967 124.126,71.181 C122.949994,71.8470033 121.606008,72.18 120.094,72.18 Z M120.292,70.128 C121.312005,70.128 122.214996,69.8850024 123.001,69.399 C123.787004,68.9129976 124.392998,68.2590041 124.819,67.437 C125.245002,66.6149959 125.458,65.7180049 125.458,64.746 C125.458,63.6899947 125.119003,62.8470031 124.441,62.217 C123.762997,61.5869968 122.806006,61.272 121.57,61.272 C120.549995,61.272 119.647004,61.5149976 118.861,62.001 C118.074996,62.4870024 117.472002,63.1409959 117.052,63.963 C116.631998,64.7850041 116.422,65.6819951 116.422,66.654 C116.422,67.7100053 116.757997,68.5529968 117.43,69.183 C118.102003,69.8130031 119.055994,70.128 120.292,70.128 Z M136.57,59.4 C138.094008,59.4 139.272996,59.7329967 140.107,60.399 C140.941004,61.0650033 141.358,61.997994 141.358,63.198 C141.358,64.2660053 141.115003,65.1869961 140.629,65.961 C140.142998,66.7350039 139.447005,67.3289979 138.541,67.743 C137.634996,68.1570021 136.570006,68.364 135.346,68.364 L132.268,68.364 L131.53,72 L129.19,72 L131.71,59.4 L136.57,59.4 Z M135.436,66.384 C136.576006,66.384 137.454997,66.1290025 138.073,65.619 C138.691003,65.1089975 139,64.3740048 139,63.414 C139,62.7419966 138.769003,62.2350017 138.307,61.893 C137.844998,61.5509983 137.182005,61.38 136.318,61.38 L133.654,61.38 L132.664,66.384 L135.436,66.384 Z M150.562,69.084 L144.226,69.084 L142.408,72 L139.906,72 L148.096,59.4 L150.418,59.4 L153.55,72 L151.228,72 L150.562,69.084 Z M150.13,67.248 L148.852,61.704 L145.378,67.248 L150.13,67.248 Z M160.918,67.698 L160.054,72 L157.732,72 L158.614,67.536 L155.32,59.4 L157.642,59.4 L160.126,65.556 L165.094,59.4 L167.542,59.4 L160.918,67.698 Z" id="COPAY"></path>
            </g>
        </g>
    </g>
</svg>
