<?xml version="1.0" encoding="UTF-8"?>
<svg width="172px" height="72px" viewBox="0 0 172 72" version="1.1" xmlns="http://www.w3.org/2000/svg" xmlns:xlink="http://www.w3.org/1999/xlink">
    <!-- Generator: Sketch 50.2 (55047) - http://www.bohemiancoding.com/sketch -->
    <title>DashCopay</title>
    <desc>Created with Sketch.</desc>
    <defs></defs>
    <g id="Page-1" stroke="none" stroke-width="1" fill="none" fill-rule="evenodd">
        <g id="Introduction" transform="translate(-102.000000, -297.000000)" fill="#FFFFFF">
            <g id="DashCopay" transform="translate(102.000000, 297.000000)">
                <g id="dash_logo_2018_rgb_for_screens" fill-rule="nonzero">
                    <path d="M100,46 L101.441443,37.6392826 L118.911828,37.6392826 C120.284042,37.6392826 121.245828,36.8023324 121.451042,35.4095069 C121.725484,34.0154266 121.039378,33.1797313 119.667164,33.1797313 L111.313966,33.1797313 C104.72363,33.1797313 101.566302,29.2785651 102.733302,22.5892383 C103.900302,15.8999114 108.43108,12 115.02018,12 L134,12 L132.490565,20.3607174 L115.763153,20.3607174 C114.389703,20.3607174 113.429153,21.1964128 113.222703,22.5892383 C112.94826,23.9833186 113.634367,24.8190139 115.007817,24.8190139 L123.361015,24.8190139 C129.950115,24.8190139 133.107443,28.7214349 131.941679,35.4095069 C130.775915,42.097579 126.311893,46 119.722794,46 L100,46 Z" id="Shape"></path>
                    <path d="M72.4494912,45.9987454 C61.4191741,45.9987454 56.4621943,40.0067159 58.4170773,28.9987454 C60.3028165,17.9920295 67.4233676,12 78.4524276,12 L98,12 L91.9958064,46 L72.4494912,45.9987454 Z M86,20 L80.9404716,20 C74.9006596,20 71.3273677,22.7579696 70.2787804,28.9993465 C69.1555651,35.2420304 71.4032606,38 77.4430726,38 L82.9781967,38 L86,20 Z" id="Shape"></path>
                    <path d="M156.751319,45.9937668 L160.247551,26.3329088 C160.877049,22.4558389 159.288196,20.7953061 155.372718,20.7953061 L149.805437,20.7953061 L145.330965,45.9937668 L134,45.9937668 L142.192288,0 L153.523253,0 L151.342672,12.2171333 L159.828305,12.2171333 C169.75549,12.2171333 173.320967,16.5093363 171.57348,26.339142 L168.077248,46 L156.751319,45.9937668 Z" id="Shape"></path>
                    <g id="Group-2">
                        <path d="M36.563796,0 L16.049301,0 L14.3491636,9.55874936 L32.8609439,9.58120238 C41.9779461,9.58120238 44.6738605,12.9104862 44.5969761,18.4376712 C44.5572938,21.2692464 43.3370639,26.0554817 42.8100337,27.6072349 C41.4050332,31.74358 38.519388,36.4637037 27.6985282,36.4449928 L9.70385759,36.4375085 L8,46 L28.4686123,46 C35.6883058,46 38.7612018,45.155517 42.0101879,43.6436803 C49.2187208,40.2956857 53.5081264,33.1394094 55.2256248,23.8002007 C57.7851314,9.89304987 54.5981489,0 36.563796,0 Z" id="Shape"></path>
                        <path d="M7.39326526,18 C2.12174669,18 1.36623941,21.6818774 0.867434282,23.9061278 C0.214121225,26.8200782 0,28 0,28 L20.6067347,28 C25.8782533,28 26.6337606,24.3181226 27.1325657,22.0938722 C27.7858788,19.1799218 28,18 28,18 L7.39326526,18 Z" id="Shape"></path>
                    </g>
                </g>
                <text id="Copay" font-family="Montserrat-SemiBoldItalic, Montserrat" font-size="18" font-style="italic" font-weight="500" letter-spacing="0.2400001">
                    <tspan x="106" y="68">Copay</tspan>
                </text>
            </g>
        </g>
    </g>
</svg>