<?xml version="1.0" encoding="UTF-8"?>
<svg width="29px" height="24px" viewBox="0 0 29 24" version="1.1" xmlns="http://www.w3.org/2000/svg" xmlns:xlink="http://www.w3.org/1999/xlink">
    <!-- Generator: Sketch 50.2 (55047) - http://www.bohemiancoding.com/sketch -->
    <defs></defs>
    <g id="Page-1" stroke="none" stroke-width="1" fill="none" fill-rule="evenodd">
        <g id="Home---enter-amount-in-dash" transform="translate(-131.000000, -159.000000)" fill="#FFFFFF" fill-rule="nonzero">
            <g id="Group" transform="translate(131.000000, 148.000000)">
                <g id="Dlogoblack" transform="translate(0.000000, 11.000000)">
                    <path d="M18.7965659,0 L8.25055866,0 L7.37655903,4.91392256 L16.8930189,4.92546511 C21.5798499,4.92546511 22.9657545,6.63696966 22.92623,9.47836217 C22.9058303,10.9340067 22.2785396,13.3944949 22.0076061,14.1922138 C21.2853292,16.3186091 19.8018886,18.7451108 14.2391455,18.735492 L4.9885192,18.7316445 L4.1126071,23.6474908 L14.6350271,23.6474908 C18.3464975,23.6474908 19.9261992,23.2133625 21.5964246,22.4361637 C25.3021576,20.7150404 27.5072376,17.0361713 28.3901621,12.2351093 C29.7059427,5.08577839 28.0675918,0 18.7965659,0 Z" id="Shape"></path>
                    <path d="M3.8006994,9.25336597 C1.09073881,9.25336597 0.702350737,11.1461304 0.445927048,12.2895638 C0.110074559,13.7875555 0,14.3941248 0,14.3941248 L10.5934254,14.3941248 C13.303386,14.3941248 13.6917741,12.5013604 13.9481978,11.357927 C14.2840503,9.85993531 14.3941248,9.25336597 14.3941248,9.25336597 L3.8006994,9.25336597 Z" id="Shape"></path>
                </g>
            </g>
        </g>
    </g>
</svg>
