<?xml version="1.0" encoding="utf-8"?>
<!-- Generator: Adobe Illustrator 21.0.2, SVG Export Plug-In . SVG Version: 6.00 Build 0)  -->
<svg version="1.1" id="Layer_1" xmlns="http://www.w3.org/2000/svg" xmlns:xlink="http://www.w3.org/1999/xlink" x="0px" y="0px"
	 viewBox="0 0 22 32" style="enable-background:new 0 0 22 32;" xml:space="preserve">
<style type="text/css">
	.st0{fill:#FFFFFF;}
</style>
<title>Imported Layers</title>
<desc>Created with Sketch.</desc>
<g>
	<path id="D" class="st0" d="M22,11.6c0-0.4-0.1-0.7-0.3-1.1c-0.2-0.3-0.5-0.6-0.8-0.7c-0.4-0.2-0.8-0.3-1.2-0.3H4.8l-1.1,3.2h13.5
		l-2.1,6.5H1.6l-1.1,3.2h15c0.4,0,0.9-0.1,1.3-0.3c0.4-0.2,0.9-0.5,1.3-0.8c0.4-0.3,0.8-0.7,1.1-1.1c0.3-0.4,0.5-0.8,0.7-1.2l2-6.2
		C22,12.5,22,12,22,11.6L22,11.6z"/>
	<path id="_-" class="st0" d="M9,14.5h-8l-1.1,3h8L9,14.5z"/>
</g>
</svg>
