<?xml version="1.0" encoding="UTF-8"?>
<svg width="23px" height="22px" viewBox="0 0 23 22" version="1.1" xmlns="http://www.w3.org/2000/svg" xmlns:xlink="http://www.w3.org/1999/xlink">
    <!-- Generator: Sketch 50.2 (55047) - http://www.bohemiancoding.com/sketch -->
    <title>wallet-with-zipper</title>
    <desc>Created with Sketch.</desc>
    <defs></defs>
    <g id="Page-1" stroke="none" stroke-width="1" fill="none" fill-rule="evenodd">
        <g id="Home---home-with-message" transform="translate(-40.000000, -407.000000)" fill="#FFFFFF" fill-rule="nonzero">
            <g id="Group" transform="translate(-10.000000, 328.000000)">
                <g id="wallet-with-zipper" transform="translate(50.000000, 79.000000)">
                    <path d="M22.3598529,7.88523161 C22.3598529,7.88523161 22.4420381,3.87925341 20.2645177,1.6326158 C19.2357929,0.571220708 17.8899564,0.0330299728 16.2644142,0.0330299728 L2.84465395,0.0330299728 C1.27605995,0.0330299728 0,1.30914986 0,2.87768392 L0,18.2209755 C0,20.2868174 1.68075204,21.9675695 3.74659401,21.9675695 L18.613079,21.9675695 C20.678921,21.9675695 22.359673,20.2868174 22.359673,18.2209755 L22.3598529,7.88523161 Z M2.84465395,1.53172752 L16.2644142,1.53172752 C17.4837657,1.53172752 18.4388774,1.90458856 19.1845395,2.67171117 C19.7280054,3.23094278 20.0954714,3.93847956 20.3440054,4.64925341 C19.9182125,4.42649591 19.4430845,4.22382016 18.613079,4.22382016 C17.7830736,4.22382016 3.74659401,4.22382016 3.74659401,4.22382016 L2.84465395,4.22382016 C2.10246866,4.22382016 1.4986376,3.6199891 1.4986376,2.87780381 C1.4986376,2.13561853 2.10246866,1.53172752 2.84465395,1.53172752 Z M20.8610354,12.7263106 L19.5314441,12.7263106 C19.1175804,12.7263106 18.7821253,13.0618256 18.7821253,13.4756294 C18.7821253,13.8894332 19.1175804,14.2249482 19.5314441,14.2249482 L20.8610354,14.2249482 L20.8610354,15.771782 L19.1530681,15.771782 C17.913515,15.771782 16.9051117,14.7633787 16.9051117,13.5238256 L16.9051117,13.4276131 C16.9051117,12.1880599 17.913515,11.1796567 19.1530681,11.1796567 L20.8610354,11.1796567 L20.8610354,12.7263106 Z M20.8610354,9.68089918 L19.1530681,9.68089918 C17.0872262,9.68089918 15.4064741,11.3616512 15.4064741,13.4274932 L15.4064741,13.5236458 C15.4064741,15.5895477 17.0872262,17.2702398 19.1530681,17.2702398 L20.8610354,17.2702398 L20.8610354,18.2209155 C20.8610354,19.4604687 19.8526322,20.4688719 18.613079,20.4688719 L3.74659401,20.4688719 C2.50704087,20.4688719 1.4986376,19.4604687 1.4986376,18.2209155 L1.4986376,5.38304632 C1.89961308,5.5993297 2.35801635,5.72239782 2.84465395,5.72239782 L3.74659401,5.72239782 L18.613079,5.72239782 C19.8526322,5.72239782 20.8610354,6.73080109 20.8610354,7.97035422 L20.8610354,9.68089918 Z" id="Shape"></path>
                </g>
            </g>
        </g>
    </g>
</svg>