<?xml version="1.0" encoding="utf-8"?>
<!-- Generator: Adobe Illustrator 22.1.0, SVG Export Plug-In . SVG Version: 6.00 Build 0)  -->
<svg version="1.1" id="Layer_1" xmlns="http://www.w3.org/2000/svg" xmlns:xlink="http://www.w3.org/1999/xlink" x="0px" y="0px"
	 viewBox="0 0 22 32" style="enable-background:new 0 0 22 32;" xml:space="preserve">
<style type="text/css">
	.st0{clip-path:url(#SVGID_2_);}
	.st1{clip-path:url(#SVGID_4_);fill:#5D5D5D;}
	.st2{clip-path:url(#SVGID_6_);}
	.st3{clip-path:url(#SVGID_8_);fill:#5D5D5D;}
	.st4{clip-path:url(#SVGID_10_);}
	.st5{clip-path:url(#SVGID_12_);fill:#FFFFFF;}
	.st6{clip-path:url(#SVGID_14_);}
	.st7{clip-path:url(#SVGID_16_);fill:#FFFFFF;}
</style>
<title>Imported Layers</title>
<desc>Created with Sketch.</desc>
<g>
	<defs>
		<path id="SVGID_1_" d="M-34.2,119.7h-14.2l-1.2,6.6l12.8,0c6.3,0,8.2,2.3,8.1,6.1c0,2-0.9,5.3-1.2,6.4c-1,2.9-3,6.1-10.5,6.1
			l-12.5,0l-1.2,6.6h14.2c5,0,7.1-0.6,9.4-1.6c5-2.3,8-7.3,9.2-13.8C-19.5,126.6-21.7,119.7-34.2,119.7z"/>
	</defs>
	<clipPath id="SVGID_2_">
		<use xlink:href="#SVGID_1_"  style="overflow:visible;"/>
	</clipPath>
	<g class="st0">
		<defs>
			<rect id="SVGID_3_" x="-227" y="-168" width="464" height="374"/>
		</defs>
		<clipPath id="SVGID_4_">
			<use xlink:href="#SVGID_3_"  style="overflow:visible;"/>
		</clipPath>
		<rect x="-59" y="114.7" class="st1" width="43.3" height="41.9"/>
	</g>
</g>
<g>
	<defs>
		<path id="SVGID_5_" d="M-54.4,132.2c-3.7,0-4.2,2.6-4.5,4.1c-0.5,2-0.6,2.8-0.6,2.8h14.3c3.7,0,4.2-2.6,4.5-4.1
			c0.5-2,0.6-2.8,0.6-2.8H-54.4z"/>
	</defs>
	<clipPath id="SVGID_6_">
		<use xlink:href="#SVGID_5_"  style="overflow:visible;"/>
	</clipPath>
	<g class="st2">
		<defs>
			<rect id="SVGID_7_" x="-227" y="-168" width="464" height="374"/>
		</defs>
		<clipPath id="SVGID_8_">
			<use xlink:href="#SVGID_7_"  style="overflow:visible;"/>
		</clipPath>
		<rect x="-64.5" y="127.2" class="st3" width="29.4" height="16.9"/>
	</g>
</g>
<g>
	<defs>
		<path id="SVGID_9_" d="M14,9H7.3l-0.6,3.1l6,0c3,0,3.8,1.1,3.8,2.9c0,0.9-0.4,2.5-0.6,3c-0.5,1.3-1.4,2.9-4.9,2.9l-5.9,0L4.7,24
			h6.7c2.3,0,3.3-0.3,4.4-0.8c2.3-1.1,3.7-3.4,4.3-6.5C20.9,12.2,19.8,9,14,9z"/>
	</defs>
	<use xlink:href="#SVGID_9_"  style="overflow:visible;fill:#FFFFFF;"/>
	<clipPath id="SVGID_10_">
		<use xlink:href="#SVGID_9_"  style="overflow:visible;"/>
	</clipPath>
	<g class="st4">
		<defs>
			<rect id="SVGID_11_" x="1.5" y="6.6" width="19.4" height="19.4"/>
		</defs>
		<use xlink:href="#SVGID_11_"  style="overflow:visible;fill:#FFFFFF;"/>
		<clipPath id="SVGID_12_">
			<use xlink:href="#SVGID_11_"  style="overflow:visible;"/>
		</clipPath>
		<rect x="1.7" y="6" class="st5" width="21.7" height="21"/>
	</g>
</g>
<g>
	<defs>
		<path id="SVGID_13_" d="M4.5,14.8c-1.7,0-2,1.2-2.1,1.9c-0.2,0.9-0.3,1.3-0.3,1.3h6.7c1.7,0,2-1.2,2.1-1.9
			c0.2-0.9,0.3-1.3,0.3-1.3H4.5z"/>
	</defs>
	<use xlink:href="#SVGID_13_"  style="overflow:visible;fill:#FFFFFF;"/>
	<clipPath id="SVGID_14_">
		<use xlink:href="#SVGID_13_"  style="overflow:visible;"/>
	</clipPath>
	<g class="st6">
		<defs>
			<rect id="SVGID_15_" x="1.5" y="6.6" width="19.4" height="19.4"/>
		</defs>
		<use xlink:href="#SVGID_15_"  style="overflow:visible;fill:#FFFFFF;"/>
		<clipPath id="SVGID_16_">
			<use xlink:href="#SVGID_15_"  style="overflow:visible;"/>
		</clipPath>
		<rect x="-0.9" y="11.8" class="st7" width="15.2" height="9.3"/>
	</g>
</g>
</svg>
