<?xml version="1.0" encoding="utf-8"?>
<!-- Generator: Adobe Illustrator 21.0.2, SVG Export Plug-In . SVG Version: 6.00 Build 0)  -->
<svg version="1.1" id="Layer_1" xmlns="http://www.w3.org/2000/svg" xmlns:xlink="http://www.w3.org/1999/xlink" x="0px" y="0px"
	 viewBox="0 0 12 16" style="enable-background:new 0 0 12 16;" xml:space="preserve">
<style type="text/css">
	.st0{fill:#5D5D5D;}
</style>
<title>Bitcoin_Symbol</title>
<desc>Created with Sketch.</desc>
<g>
	<path id="D" class="st0" d="M12,5.6c0-0.2-0.1-0.4-0.2-0.6c-0.1-0.2-0.3-0.3-0.4-0.4c-0.2-0.1-0.4-0.1-0.6-0.1H2.6L2,6.2h7.4
		L8.2,9.8H0.8l-0.6,1.8h8.2c0.2,0,0.5-0.1,0.7-0.1c0.2-0.1,0.5-0.3,0.7-0.4c0.2-0.2,0.4-0.4,0.6-0.6c0.1-0.2,0.3-0.4,0.4-0.7
		l1.1-3.4C12,6.1,12,5.8,12,5.6L12,5.6z"/>
	<path id="_-" class="st0" d="M4.9,7.2H0.6L0,8.8h4.4L4.9,7.2z"/>
</g>
</svg>
