<?xml version="1.0" encoding="UTF-8"?>
<svg width="96px" height="96px" viewBox="0 0 96 96" version="1.1" xmlns="http://www.w3.org/2000/svg" xmlns:xlink="http://www.w3.org/1999/xlink">
    <!-- Generator: Sketch 50.2 (55047) - http://www.bohemiancoding.com/sketch -->
    <title>screenshot</title>
    <desc>Created with Sketch.</desc>
    <defs></defs>
    <g id="Page-1" stroke="none" stroke-width="1" fill="none" fill-rule="evenodd">
        <g id="Introduction-warning3" transform="translate(-139.000000, -74.000000)" fill="#FFFFFF" fill-rule="nonzero">
            <g id="screenshot" transform="translate(139.000000, 74.000000)">
                <g id="disable">
                    <path d="M48,0 C21.4902581,0 0,21.4902581 0,48 C0,74.5097419 21.4902581,96 48,96 C74.5097419,96 96,74.5097419 96,48 C95.9692258,21.5030323 74.4969677,0.0307741935 48,0 Z M17.3179355,15.1950968 C25.6385806,7.41348387 36.6077419,3.08825806 48,3.09677419 C59.372129,3.09135484 70.3194194,7.41696774 78.6162581,15.1943226 L15.1943226,78.6162581 C-1.73245161,60.5165806 -0.781741935,32.121871 17.3179355,15.1950968 Z M78.6820645,80.8049032 C70.3614194,88.5865161 59.3922581,92.9117419 48,92.9032258 C36.627871,92.9086452 25.6805806,88.5830323 17.3837419,80.8056774 L80.8056774,17.3837419 C97.7324516,35.4834194 96.7817419,63.878129 78.6820645,80.8049032 Z" id="Shape"></path>
                </g>
                <g transform="translate(28.166667, 28.333333)">
                    <path d="M34.0277778,19.4444444 L25.6944444,19.4444444 L25.6944444,14.5833333 C25.6944444,13.4327257 24.7617188,12.5 23.6111111,12.5 L11.1111111,12.5 C9.96050347,12.5 9.02777778,13.4327257 9.02777778,14.5833333 L9.02777778,19.4444444 L0.694444444,19.4444444 C0.3109375,19.4444444 0,19.7553819 0,20.1388889 L0,40.9722222 C0,41.3557292 0.3109375,41.6666667 0.694444444,41.6666667 L34.0277778,41.6666667 C34.4112847,41.6666667 34.7222222,41.3557292 34.7222222,40.9722222 L34.7222222,20.1388889 C34.7222222,19.7553819 34.4112847,19.4444444 34.0277778,19.4444444 Z M33.3333333,40.2777778 L1.38888889,40.2777778 L1.38888889,20.8333333 L9.72222222,20.8333333 C10.1057292,20.8333333 10.4166667,20.5223958 10.4166667,20.1388889 L10.4166667,14.5833333 C10.4166667,14.1998264 10.7276042,13.8888889 11.1111111,13.8888889 L23.6111111,13.8888889 C23.9946181,13.8888889 24.3055556,14.1998264 24.3055556,14.5833333 L24.3055556,20.1388889 C24.3055556,20.5223958 24.6164931,20.8333333 25,20.8333333 L33.3333333,20.8333333 L33.3333333,40.2777778 Z" id="Shape"></path>
                    <path d="M17.3611111,21.5277778 C12.3751736,21.5277778 8.33333333,25.5696181 8.33333333,30.5555556 C8.33333333,35.5414931 12.3751736,39.5833333 17.3611111,39.5833333 C22.3470486,39.5833333 26.3888889,35.5414931 26.3888889,30.5555556 C26.3831597,25.5720486 22.3446181,21.5335069 17.3611111,21.5277778 Z M17.3611111,38.1944444 C13.1422743,38.1944444 9.72222222,34.7743924 9.72222222,30.5555556 C9.72222222,26.3367188 13.1422743,22.9166667 17.3611111,22.9166667 C21.5799479,22.9166667 25,26.3367188 25,30.5555556 C24.9950521,34.772309 21.5778646,38.1894965 17.3611111,38.1944444 Z" id="Shape"></path>
                    <path d="M22.9166667,14.5833333 L18.75,14.5833333 C18.3664931,14.5833333 18.0555556,14.8942708 18.0555556,15.2777778 L18.0555556,18.0555556 C18.0555556,18.4390625 18.3664931,18.75 18.75,18.75 L22.9166667,18.75 C23.3001736,18.75 23.6111111,18.4390625 23.6111111,18.0555556 L23.6111111,15.2777778 C23.6111111,14.8942708 23.3001736,14.5833333 22.9166667,14.5833333 Z M22.2222222,17.3611111 L19.4444444,17.3611111 L19.4444444,15.9722222 L22.2222222,15.9722222 L22.2222222,17.3611111 Z" id="Shape"></path>
                    <rect id="Rectangle-path" x="35.4166667" y="36.1111111" width="1.38888889" height="1.38888889"></rect>
                    <rect id="Rectangle-path" x="37.5" y="36.1111111" width="1.38888889" height="1.38888889"></rect>
                    <path d="M40.2777778,35.4166667 L40.2777778,36.1111111 L39.5833333,36.1111111 L39.5833333,37.5 L40.9722222,37.5 C41.3557292,37.5 41.6666667,37.1890625 41.6666667,36.8055556 L41.6666667,35.4166667 L40.2777778,35.4166667 Z" id="Shape"></path>
                    <rect id="Rectangle-path" x="40.2777778" y="31.25" width="1.38888889" height="2.77777778"></rect>
                    <rect id="Rectangle-path" x="40.2777778" y="7.63888889" width="1.38888889" height="2.77777778"></rect>
                    <rect id="Rectangle-path" x="40.2777778" y="11.1111111" width="1.38888889" height="2.77777778"></rect>
                    <rect id="Rectangle-path" x="40.2777778" y="15.2777778" width="1.38888889" height="2.77777778"></rect>
                    <rect id="Rectangle-path" x="40.2777778" y="3.47222222" width="1.38888889" height="2.77777778"></rect>
                    <rect id="Rectangle-path" x="40.2777778" y="23.6111111" width="1.38888889" height="2.77777778"></rect>
                    <rect id="Rectangle-path" x="40.2777778" y="19.4444444" width="1.38888889" height="2.77777778"></rect>
                    <rect id="Rectangle-path" x="40.2777778" y="27.0833333" width="1.38888889" height="2.77777778"></rect>
                    <path d="M40.9722222,0 L39.5833333,0 L39.5833333,1.38888889 L40.2777778,1.38888889 L40.2777778,2.08333333 L41.6666667,2.08333333 L41.6666667,0.694444444 C41.6666667,0.3109375 41.3557292,0 40.9722222,0 Z" id="Shape"></path>
                    <rect id="Rectangle-path" x="23.6111111" y="0" width="2.77777778" height="1.38888889"></rect>
                    <rect id="Rectangle-path" x="19.4444444" y="0" width="2.77777778" height="1.38888889"></rect>
                    <rect id="Rectangle-path" x="11.8055556" y="0" width="2.77777778" height="1.38888889"></rect>
                    <rect id="Rectangle-path" x="27.7777778" y="0" width="2.77777778" height="1.38888889"></rect>
                    <rect id="Rectangle-path" x="35.4166667" y="0" width="2.77777778" height="1.38888889"></rect>
                    <rect id="Rectangle-path" x="31.25" y="0" width="2.77777778" height="1.38888889"></rect>
                    <rect id="Rectangle-path" x="15.2777778" y="0" width="2.77777778" height="1.38888889"></rect>
                    <rect id="Rectangle-path" x="7.63888889" y="0" width="2.77777778" height="1.38888889"></rect>
                    <path d="M4.86111111,0 C4.47760417,0 4.16666667,0.3109375 4.16666667,0.694444444 L4.16666667,2.08333333 L5.55555556,2.08333333 L5.55555556,1.38888889 L6.25,1.38888889 L6.25,0 L4.86111111,0 Z" id="Shape"></path>
                    <rect id="Rectangle-path" x="4.16666667" y="13.1944444" width="1.38888889" height="2.77777778"></rect>
                    <rect id="Rectangle-path" x="4.16666667" y="3.47222222" width="1.38888889" height="2.77777778"></rect>
                    <rect id="Rectangle-path" x="4.16666667" y="8.33333333" width="1.38888889" height="2.77777778"></rect>
                    <rect id="Rectangle-path" x="4.16666667" y="17.3611111" width="1.38888889" height="1.38888889"></rect>
                </g>
            </g>
        </g>
    </g>
</svg>
