
<svg width="96px" height="96px" viewBox="0 0 96 96" version="1.1" xmlns="http://www.w3.org/2000/svg" xmlns:xlink="http://www.w3.org/1999/xlink">
  <!-- Generator: Sketch 50.2 (55047) - http://www.bohemiancoding.com/sketch -->
  <desc>Created with Sketch.</desc>
  <defs></defs>
  <g id="Page-1" stroke="none" stroke-width="1" fill="none" fill-rule="evenodd">
    <g id="Introduction-warning" transform="translate(-140.000000, -78.000000)" fill="#FFFFFF" fill-rule="nonzero">
      <g id="onboarding-warning" transform="translate(140.000000, 78.000000)">
        <path d="M48,0 C21.5335385,0 0,21.5316923 0,48 C0,74.4683077 21.5335385,96 48,96 C74.4664615,96 96,74.4683077 96,48 C96,21.5316923 74.4664615,0 48,0 Z M48,92.3076923 C23.5698462,92.3076923 3.69230769,72.4301538 3.69230769,48 C3.69230769,23.5698462 23.5698462,3.69230769 48,3.69230769 C72.4301538,3.69230769 92.3076923,23.5698462 92.3076923,48 C92.3076923,72.4301538 72.4301538,92.3076923 48,92.3076923 Z" id="Shape"></path>
        <path d="M48,18.4615385 C46.9809231,18.4615385 46.1538462,19.2867692 46.1538462,20.3076923 L46.1538462,60.9230769 C46.1538462,61.944 46.9809231,62.7692308 48,62.7692308 C49.0190769,62.7692308 49.8461538,61.944 49.8461538,60.9230769 L49.8461538,20.3076923 C49.8461538,19.2867692 49.0190769,18.4615385 48,18.4615385 Z" id="Shape"></path>
        <path d="M48,68.3076923 C46.9809231,68.3076923 46.1538462,69.1329231 46.1538462,70.1538462 L46.1538462,73.8461538 C46.1538462,74.8670769 46.9809231,75.6923077 48,75.6923077 C49.0190769,75.6923077 49.8461538,74.8670769 49.8461538,73.8461538 L49.8461538,70.1538462 C49.8461538,69.1329231 49.0190769,68.3076923 48,68.3076923 Z" id="Shape"></path>
      </g>
    </g>
  </g>
</svg>
