
<svg width="125px" height="106px" viewBox="0 0 125 106" version="1.1" xmlns="http://www.w3.org/2000/svg" xmlns:xlink="http://www.w3.org/1999/xlink">
  <!-- Generator: Sketch 50.2 (55047) - http://www.bohemiancoding.com/sketch -->
  <desc>Created with Sketch.</desc>
  <defs></defs>
  <g id="Page-1" stroke="none" stroke-width="1" fill="none" fill-rule="evenodd">
    <g id="Introduction-warning2" transform="translate(-125.000000, -74.000000)" fill="#FFFFFF" fill-rule="nonzero">
      <g id="onboarding-spy" transform="translate(125.000000, 74.000000)">
        <g id="glasses-with-moustache" transform="translate(22.500000, 67.500000)">
          <path d="M19.2361111,37.6840278 C29.5138889,37.6840278 37.8784722,29.3229167 37.8784722,19.0416667 C37.8784722,18.3368056 37.7465278,17.6666667 37.6701389,16.9826389 L42.6770833,16.9826389 C42.6041667,17.6666667 42.46875,18.3368056 42.46875,19.0416667 C42.46875,29.3194444 50.8333333,37.6840278 61.1111111,37.6840278 C71.3888889,37.6840278 79.7534722,29.3229167 79.7534722,19.0416667 C79.7534722,8.76041667 71.3888889,0.399305556 61.1111111,0.399305556 C52.5138889,0.399305556 45.3333333,6.27777778 43.1840278,14.2048611 L37.15625,14.2048611 C35.0104167,6.28125 27.8298611,0.402777778 19.2361111,0.402777778 C8.95833333,0.402777778 0.59375,8.76388889 0.59375,19.0451389 C0.59375,29.3263889 8.95833333,37.6840278 19.2361111,37.6840278 Z M61.1145833,3.18055556 C69.8645833,3.18055556 76.9756944,10.2986111 76.9756944,19.0451389 C76.9756944,27.7916667 69.8611111,34.9097222 61.1145833,34.9097222 C52.3680556,34.9097222 45.2534722,27.7916667 45.2534722,19.0451389 C45.2534722,10.2986111 52.3680556,3.18055556 61.1145833,3.18055556 Z M19.2361111,3.18055556 C27.9861111,3.18055556 35.0972222,10.2986111 35.0972222,19.0451389 C35.0972222,27.7916667 27.9826389,34.9097222 19.2361111,34.9097222 C10.4895833,34.9097222 3.375,27.7916667 3.375,19.0451389 C3.375,10.2986111 10.4861111,3.18055556 19.2361111,3.18055556 Z" id="Shape"></path>
        </g>
        <g id="hat">
          <path d="M124.79541,55.5014648 C124.315918,54.5356445 123.142822,54.1403809 122.175293,54.6162109 C122.136963,54.6350098 118.279541,56.5 112.606201,56.5 L101.850586,56.5 C101.456055,52.7624512 100.39209,43.6520996 98.5100098,34.0512695 C95.154541,16.9328613 90.8562012,6.42138672 85.7346191,2.80908203 C79.0759277,-1.88696289 73.3515625,0.616943359 68.751709,2.62890625 C66.5168457,3.60644531 64.4055176,4.5300293 62.5014648,4.5300293 C60.597168,4.5300293 58.4863281,3.60644531 56.2512207,2.62890625 C51.6513672,0.616699219 45.927002,-1.88769531 39.2683105,2.80908203 C34.1467285,6.42163086 29.8483887,16.9328613 26.4926758,34.0512695 C24.6108398,43.6520996 23.546875,52.7626953 23.1520996,56.5 L12.3962402,56.5 C6.72290039,56.5 2.86547852,54.6352539 2.83300781,54.6188965 C1.86669922,54.1350098 0.690673828,54.5273438 0.207275391,55.4941406 C-0.276367187,56.4609375 0.115722656,57.6367188 1.08251953,58.1201172 C1.26977539,58.2138672 5.74755859,60.4145508 12.3962402,60.4145508 L112.606201,60.4145508 C119.255127,60.4145508 123.732666,58.2138672 123.919922,58.1201172 C124.884521,57.6379395 125.274414,56.4677734 124.79541,55.5014648 Z M41.5241699,6.0078125 C46.3796387,2.58325195 50.2270508,4.26611328 54.6818848,6.21508789 C57.1875,7.31103516 59.7780762,8.44458008 62.5009766,8.44458008 C65.223877,8.44458008 67.8146973,7.3112793 70.3203125,6.21508789 C74.7751465,4.26635742 78.6230469,2.58349609 83.4780273,6.0078125 C89.7045898,10.3994141 93.9550781,29.111084 96.2788086,43.9736328 L28.7231445,43.9736328 C31.0471191,29.111084 35.2978516,10.3991699 41.5241699,6.0078125 Z M27.0795898,56.5 C27.3312988,54.0705566 27.6850586,51.1271973 28.1413574,47.8881836 L96.8605957,47.8881836 C97.3173828,51.1271973 97.6706543,54.0705566 97.9223633,56.5 L27.0795898,56.5 Z" id="Shape"></path>
        </g>
      </g>
    </g>
  </g>
</svg>
