<?xml version="1.0" encoding="UTF-8"?>
<svg width="27px" height="24px" viewBox="0 0 27 24" version="1.1" xmlns="http://www.w3.org/2000/svg" xmlns:xlink="http://www.w3.org/1999/xlink">
    <!-- Generator: Sketch 50.2 (55047) - http://www.bohemiancoding.com/sketch -->
    <title>send-selected</title>
    <desc>Created with Sketch.</desc>
    <defs></defs>
    <g id="Page-1" stroke="none" stroke-width="1" fill="none" fill-rule="evenodd">
        <g id="Home---send" transform="translate(-250.000000, -625.000000)" fill="#008DE4" fill-rule="nonzero">
            <g id="send-selected" transform="translate(250.000000, 625.000000)">
                <path d="M26.8698301,0.124616512 C26.748963,0.00462755953 26.5704045,-0.0325029224 26.4132561,0.029829001 L0.274895877,10.3736505 C0.119540484,10.4351227 0.0129643646,10.5823012 0.00109913603,10.7516184 C-0.0107660925,10.9209355 0.0741889439,11.0820313 0.219313873,11.1653734 L5.63613348,14.2752527 L7.51616576,23.6389585 C7.52787279,23.7051593 7.5542927,23.7667926 7.59220869,23.819721 C7.59600557,23.8250407 7.59911689,23.8291246 7.60228096,23.8332084 C7.6685153,23.9176251 7.76243517,23.9765718 7.87191168,23.9944116 C7.88588628,23.9966685 7.89991362,23.9982805 7.91383549,23.9991402 C7.92285306,23.9997313 7.9318179,24 7.94078274,24 C8.02299559,24 8.10088423,23.9760882 8.16727677,23.9340141 C8.1897416,23.9198283 8.21109902,23.9034393 8.23092713,23.8848471 C8.23709705,23.8790438 8.24247595,23.8738316 8.24769665,23.8684044 L12.3252747,19.7029124 C12.4932864,19.531231 12.49297,19.2532091 12.3244837,19.0820112 C12.1558393,18.9107059 11.8832027,18.9111358 11.7151383,19.0828173 L8.51210668,22.3549208 L9.20419228,16.3154948 L18.9861504,21.7864107 C19.0846581,21.8412198 19.1941346,21.8529876 19.2944354,21.8283235 C19.3054569,21.8255831 19.3155291,21.8226814 19.3254959,21.8194036 C19.424531,21.7866794 19.5114372,21.7185441 19.5667028,21.6207475 C19.5694977,21.6156965 19.5719763,21.611129 19.574402,21.6065616 C19.5855817,21.5848529 19.5945466,21.5635741 19.6016657,21.5419728 L26.9747187,0.587216105 C27.0316191,0.425368042 26.9906972,0.244497996 26.8698301,0.124616512 Z M1.43605351,10.8560781 L22.8004258,2.40145122 L6.00342822,13.4782639 L1.43605351,10.8560781 Z M8.58092501,15.2743367 C8.54063596,15.3072759 8.50556762,15.3481678 8.47814576,15.3961527 C8.47455982,15.4024396 8.47118483,15.4087803 8.4679153,15.4151747 C8.44175906,15.466706 8.42657157,15.5211389 8.4215618,15.5756256 L7.82392342,20.7909269 L6.49992212,14.1967468 L21.0074052,4.62976374 L8.58092501,15.2743367 Z M18.9583594,20.7691645 L9.60940302,15.5404296 L25.6250885,1.82128072 L18.9583594,20.7691645 Z" id="Shape"></path>
            </g>
        </g>
    </g>
</svg>