<?xml version="1.0" encoding="UTF-8"?>
<svg width="35px" height="20px" viewBox="0 0 35 20" version="1.1" xmlns="http://www.w3.org/2000/svg" xmlns:xlink="http://www.w3.org/1999/xlink">
    <!-- Generator: Sketch 50.2 (55047) - http://www.bohemiancoding.com/sketch -->
    <title>scan-selected</title>
    <desc>Created with Sketch.</desc>
    <defs></defs>
    <g id="Page-1" stroke="none" stroke-width="1" fill="none" fill-rule="evenodd">
        <g id="Home---scan" transform="translate(-170.000000, -628.000000)">
            <g id="scan-selected" transform="translate(170.000000, 628.000000)">
                <path d="M11.2561983,0 L8.23140496,0 C7.00095868,0 6,1.00095868 6,2.23140496 L6,5.25619835 C6,5.66732231 6.33267769,6 6.74380165,6 C7.15492562,6 7.48760331,5.66732231 7.48760331,5.25619835 L7.48760331,2.23140496 C7.48760331,1.82102479 7.82102479,1.48760331 8.23140496,1.48760331 L11.2561983,1.48760331 C11.6673223,1.48760331 12,1.15492562 12,0.743801653 C12,0.332677686 11.6673223,0 11.2561983,0 Z" id="Shape" fill="#008DE4" fill-rule="nonzero"></path>
                <path d="M27.768595,0 L24.7438017,0 C24.3326777,0 24,0.332677686 24,0.743801653 C24,1.15492562 24.3326777,1.48760331 24.7438017,1.48760331 L27.768595,1.48760331 C28.1789752,1.48760331 28.5123967,1.82102479 28.5123967,2.23140496 L28.5123967,5.25619835 C28.5123967,5.66732231 28.8450744,6 29.2561983,6 C29.6673223,6 30,5.66732231 30,5.25619835 L30,2.23140496 C30,1.00095868 28.9990413,0 27.768595,0 Z" id="Shape" fill="#008DE4" fill-rule="nonzero"></path>
                <path d="M11.2561983,18.5 L8.23140496,18.5 C7.82102479,18.5 7.48760331,18.1638 7.48760331,17.75 L7.48760331,14.75 C7.48760331,14.33545 7.15492562,14 6.74380165,14 C6.33267769,14 6,14.33545 6,14.75 L6,17.75 C6,18.9907 7.00095868,20 8.23140496,20 L11.2561983,20 C11.6673223,20 12,19.66455 12,19.25 C12,18.83545 11.6673223,18.5 11.2561983,18.5 Z" id="Shape" fill="#008DE4" fill-rule="nonzero"></path>
                <path d="M29.2561983,14 C28.8450744,14 28.5123967,14.33545 28.5123967,14.75 L28.5123967,17.75 C28.5123967,18.1638 28.1789752,18.5 27.768595,18.5 L24.7438017,18.5 C24.3326777,18.5 24,18.83545 24,19.25 C24,19.66455 24.3326777,20 24.7438017,20 L27.768595,20 C28.9990413,20 30,18.9907 30,17.75 L30,14.75 C30,14.33545 29.6673223,14 29.2561983,14 Z" id="Shape" fill="#008DE4" fill-rule="nonzero"></path>
                <path d="M0.5,9.5 L34.5,9.5" id="Line-4" stroke="#008DE4" stroke-linecap="square"></path>
            </g>
        </g>
    </g>
</svg>