<?xml version="1.0" encoding="UTF-8"?>
<svg width="28px" height="24px" viewBox="0 0 28 24" version="1.1" xmlns="http://www.w3.org/2000/svg" xmlns:xlink="http://www.w3.org/1999/xlink">
    <!-- Generator: Sketch 50.2 (55047) - http://www.bohemiancoding.com/sketch -->
    <title>send</title>
    <desc>Created with Sketch.</desc>
    <defs></defs>
    <g id="Page-1" stroke="none" stroke-width="1" fill="none" fill-rule="evenodd" opacity="0.598325893">
        <g id="Home---home-with-message" transform="translate(-250.000000, -625.000000)" fill="#000000" fill-rule="nonzero">
            <g id="send" transform="translate(250.000000, 625.000000)">
                <path d="M27.2963571,0.160660714 C27.1735714,0.0410357143 26.9921786,0.00401785714 26.8325357,0.0661607143 L0.279267857,10.3786071 C0.121446429,10.4398929 0.0131785714,10.586625 0.001125,10.7554286 C-0.0109285714,10.9242321 0.075375,11.0848393 0.222803571,11.1679286 L5.72560714,14.268375 L7.63548214,23.6036786 C7.647375,23.6696786 7.67421429,23.731125 7.71273214,23.7838929 C7.71658929,23.7891964 7.71975,23.7932679 7.72296429,23.7973393 C7.79025,23.8815 7.88566071,23.9402679 7.996875,23.9580536 C8.01107143,23.9603036 8.02532143,23.9619107 8.03946429,23.9627679 C8.048625,23.9633571 8.05773214,23.963625 8.06683929,23.963625 C8.15035714,23.963625 8.22948214,23.9397857 8.29692857,23.8978393 C8.31975,23.8836964 8.34144643,23.8673571 8.36158929,23.8488214 C8.36785714,23.8430357 8.37332143,23.8378393 8.378625,23.8324286 L12.5209286,19.6795714 C12.6916071,19.5084107 12.6912857,19.2312321 12.520125,19.0605536 C12.3488036,18.8897679 12.0718393,18.8901964 11.9011071,19.0613571 L8.64723214,22.3235357 L9.35030357,16.3024286 L19.2875357,21.75675 C19.3876071,21.8113929 19.4988214,21.823125 19.6007143,21.7985357 C19.6119107,21.7958036 19.6221429,21.7929107 19.6322679,21.7896429 C19.732875,21.7570179 19.8211607,21.6890893 19.8773036,21.5915893 C19.8801429,21.5865536 19.8826607,21.582 19.885125,21.5774464 C19.8964821,21.5558036 19.9055893,21.5345893 19.9128214,21.5130536 L27.4029107,0.621857143 C27.4607143,0.4605 27.4191429,0.280178571 27.2963571,0.160660714 Z M1.45885714,10.8595714 L23.1623571,2.43058929 L6.09873214,13.4738036 L1.45885714,10.8595714 Z M8.71714286,15.2644286 C8.67621429,15.2972679 8.64058929,15.3380357 8.61273214,15.385875 C8.60908929,15.3921429 8.60566071,15.3984643 8.60233929,15.4048393 C8.57576786,15.4562143 8.56033929,15.5104821 8.55525,15.5648036 L7.948125,20.7642857 L6.60310714,14.1901071 L21.340875,4.65214286 L8.71714286,15.2644286 Z M19.2593036,20.7425893 L9.76194643,15.5297143 L26.0318571,1.85217857 L19.2593036,20.7425893 Z" id="Shape"></path>
            </g>
        </g>
    </g>
</svg>