<?xml version="1.0" encoding="UTF-8"?>
<svg width="24px" height="24px" viewBox="0 0 24 24" version="1.1" xmlns="http://www.w3.org/2000/svg" xmlns:xlink="http://www.w3.org/1999/xlink">
    <!-- Generator: Sketch 50.2 (55047) - http://www.bohemiancoding.com/sketch -->
    <title>settings</title>
    <desc>Created with Sketch.</desc>
    <defs></defs>
    <g id="Page-1" stroke="none" stroke-width="1" fill="none" fill-rule="evenodd" opacity="0.602957589">
        <g id="Home---home-with-message" transform="translate(-330.000000, -625.000000)" fill="#008DE4" fill-rule="nonzero">
            <g id="settings" transform="translate(330.000000, 625.000000)">
                <path d="M22.7574113,9.47478914 L21.073904,9.18919415 C20.8985386,8.62301461 20.6730689,8.07687683 20.3974948,7.55579123 L21.3895616,6.16789979 C21.8104384,5.57666806 21.7453027,4.76998747 21.2292276,4.25892276 L19.7361169,2.76581211 C19.4555324,2.48522756 19.0847599,2.32990397 18.6889353,2.32990397 C18.3782881,2.32990397 18.0826722,2.4251023 17.8321503,2.60547808 L16.4392484,3.59754489 C15.8981211,3.3119499 15.3319415,3.07645929 14.7457203,2.90109395 L14.4651357,1.23762839 C14.3448852,0.521135699 13.7286013,5.01043841e-05 13.0020877,5.01043841e-05 L10.8926931,5.01043841e-05 C10.1661795,5.01043841e-05 9.54989562,0.521135699 9.42964509,1.23762839 L9.13903967,2.94117745 C8.57787056,3.1165428 8.03173278,3.34702296 7.51064718,3.62760752 L6.13277662,2.63554071 C5.8822547,2.45516493 5.58162839,2.3599666 5.27098121,2.3599666 C4.87515658,2.3599666 4.4993737,2.51529019 4.22379958,2.79587474 L2.7256785,4.28898539 C2.21461378,4.8000501 2.14446764,5.60673069 2.56534447,6.19796242 L3.56743215,7.60589562 C3.29185804,8.13199165 3.07139875,8.67812944 2.90104384,9.24430898 L1.23757829,9.52489353 C0.521085595,9.64514405 -2.84217094e-14,10.261428 -2.84217094e-14,10.9879415 L-2.84217094e-14,13.0973361 C-2.84217094e-14,13.8238497 0.521085595,14.4401336 1.23757829,14.5603841 L2.94112735,14.8509896 C3.11649269,15.4121587 3.34697286,15.9582965 3.62755741,16.479382 L2.64050104,17.8522422 C2.21962422,18.4434739 2.28475992,19.2501545 2.80083507,19.7612192 L4.29394572,21.2543299 C4.57453027,21.5349144 4.94530271,21.690238 5.34112735,21.690238 C5.65177453,21.690238 5.9473904,21.5950397 6.19791232,21.4146639 L7.60584551,20.4125762 C8.11189979,20.6781294 8.64300626,20.8935783 9.18914405,21.0639332 L9.4697286,22.7474405 C9.58997912,23.4639332 10.206263,23.9850188 10.9327766,23.9850188 L13.0471816,23.9850188 C13.7736952,23.9850188 14.3899791,23.4639332 14.5102296,22.7474405 L14.7958246,21.0639332 C15.3620042,20.8885678 15.908142,20.6630981 16.4292276,20.387524 L17.817119,21.3795908 C18.0676409,21.5599666 18.3682672,21.6551649 18.6789144,21.6551649 C19.074739,21.6551649 19.4455115,21.4998413 19.726096,21.2192568 L21.2192067,19.7261461 C21.7302714,19.2150814 21.8004175,18.4084008 21.3795407,17.8171691 L20.3874739,16.4242672 C20.663048,15.8981712 20.8935282,15.3520334 21.0638831,14.7908643 L22.7473904,14.5102797 C23.4638831,14.3900292 23.9849687,13.7737453 23.9849687,13.0472317 L23.9849687,10.9378372 C23.9949896,10.2113236 23.473904,9.59503967 22.7574113,9.47478914 Z M22.6421712,13.0472317 C22.6421712,13.1123674 22.5970772,13.1674823 22.5319415,13.1775031 L20.4275574,13.5282338 C20.1620042,13.5733278 19.9515658,13.7687349 19.8864301,14.0242672 C19.6960334,14.7608017 19.405428,15.4672735 19.0146138,16.1236409 C18.8793319,16.3541211 18.8893528,16.6397161 19.0446764,16.8601754 L20.2822547,18.6038079 C20.3173278,18.6539123 20.3123173,18.7290689 20.2672234,18.7741628 L18.7741127,20.2672735 C18.7390397,20.3023466 18.7039666,20.307357 18.6789144,20.307357 C18.6488518,20.307357 18.6237996,20.2973361 18.6037578,20.2823048 L16.8651357,19.0447265 C16.6496868,18.8894029 16.3590814,18.879382 16.1286013,19.0146639 C15.4722338,19.4054781 14.765762,19.6960835 14.0292276,19.8864802 C13.7686848,19.9516159 13.5732777,20.1670647 13.5331942,20.4276075 L13.177453,22.5319916 C13.1674322,22.5971273 13.1123173,22.6422213 13.0471816,22.6422213 L10.9377871,22.6422213 C10.8726514,22.6422213 10.8175365,22.5971273 10.8075157,22.5319916 L10.456785,20.4276075 C10.411691,20.1620543 10.2162839,19.9516159 9.96075157,19.8864802 C9.24425887,19.7010939 8.55281837,19.415499 7.90647182,19.0447265 C7.80125261,18.9846013 7.68100209,18.9545386 7.565762,18.9545386 C7.43048017,18.9545386 7.29018789,18.9946221 7.17494781,19.0797996 L5.42129436,20.3273987 C5.39624217,20.3424301 5.37118998,20.3524509 5.34613779,20.3524509 C5.32609603,20.3524509 5.28601253,20.3474405 5.25093946,20.3123674 L3.75782881,18.8192568 C3.71273486,18.7741628 3.70772443,18.7040167 3.74279749,18.6489019 L4.97536534,16.9203006 C5.13068894,16.6998413 5.14070981,16.4092359 5.00542797,16.1787557 C4.61461378,15.5273987 4.31398747,14.8209269 4.12359081,14.0843925 C4.05344468,13.8288601 3.84300626,13.633453 3.58246347,13.5883591 L1.46304802,13.2276075 C1.39791232,13.2175866 1.35281837,13.1624718 1.35281837,13.0973361 L1.35281837,10.9879415 C1.35281837,10.9228058 1.39791232,10.867691 1.46304802,10.8576701 L3.55240084,10.5069395 C3.81795407,10.4618455 4.03340292,10.2664384 4.09853862,10.0058956 C4.28392484,9.26936117 4.56951983,8.55787891 4.95532359,7.90151148 C5.09060543,7.67103132 5.07557411,7.38543633 4.92025052,7.16998747 L3.67265136,5.41633403 C3.63757829,5.36622965 3.64258873,5.29107307 3.68768267,5.24597912 L5.18079332,3.75286848 C5.21586639,3.71779541 5.25093946,3.71278497 5.27599165,3.71278497 C5.30605428,3.71278497 5.33110647,3.72280585 5.35114823,3.73783716 L7.07974948,4.97040501 C7.30020877,5.1257286 7.5908142,5.13574948 7.82129436,5.00046764 C8.47265136,4.60965344 9.17912317,4.30902714 9.91565762,4.11863048 C10.17119,4.04848434 10.3665971,3.83804593 10.411691,3.57750313 L10.7724426,1.45808768 C10.7824635,1.39295198 10.8375783,1.34785804 10.902714,1.34785804 L13.0121086,1.34785804 C13.0772443,1.34785804 13.1323591,1.39295198 13.14238,1.45808768 L13.4931106,3.5474405 C13.5382046,3.81299374 13.7336117,4.02844259 13.9941545,4.09357829 C14.7507307,4.28397495 15.4722338,4.57959081 16.1436326,4.97541545 C16.3741127,5.11069729 16.6597077,5.10067641 16.880167,4.94535282 L18.6087683,3.70276409 C18.6338205,3.68773278 18.6588727,3.6777119 18.6839248,3.6777119 C18.7039666,3.6777119 18.7440501,3.68272234 18.7791232,3.71779541 L20.2722338,5.21090605 C20.3173278,5.256 20.3223382,5.32614614 20.2872651,5.38126096 L19.0496868,7.11988309 C18.8943633,7.33533194 18.8843424,7.62593737 19.0196242,7.85641754 C19.4104384,8.51278497 19.7010438,9.21925678 19.8914405,9.95579123 C19.9565762,10.216334 20.1720251,10.4117411 20.4325678,10.4518246 L22.536952,10.8075658 C22.6020877,10.8175866 22.6471816,10.8727015 22.6471816,10.9378372 L22.6471816,13.0472317 L22.6421712,13.0472317 Z" id="Shape"></path>
                <path d="M11.9949896,6.81424635 C9.13903967,6.81424635 6.81920668,9.13407933 6.81920668,11.9900292 C6.81920668,14.8459791 9.13903967,17.1658121 11.9949896,17.1658121 C14.8509395,17.1658121 17.1707724,14.8459791 17.1707724,11.9900292 C17.1707724,9.13407933 14.8509395,6.81424635 11.9949896,6.81424635 Z M11.9949896,15.8129937 C9.88559499,15.8129937 8.17202505,14.0994238 8.17202505,11.9900292 C8.17202505,9.88063466 9.88559499,8.16706472 11.9949896,8.16706472 C14.1043841,8.16706472 15.8179541,9.88063466 15.8179541,11.9900292 C15.8179541,14.0994238 14.1043841,15.8129937 11.9949896,15.8129937 Z" id="Shape"></path>
            </g>
        </g>
    </g>
</svg>
