<?xml version="1.0" encoding="UTF-8"?>
<svg width="24px" height="24px" viewBox="0 0 24 24" version="1.1" xmlns="http://www.w3.org/2000/svg" xmlns:xlink="http://www.w3.org/1999/xlink">
    <!-- Generator: Sketch 50.2 (55047) - http://www.bohemiancoding.com/sketch -->
    <title>receive</title>
    <desc>Created with Sketch.</desc>
    <defs></defs>
    <g id="Page-1" stroke="none" stroke-width="1" fill="none" fill-rule="evenodd">
        <g id="Home---home-with-message" transform="translate(-101.000000, -626.000000)" fill="#787878" fill-rule="nonzero">
            <g id="receive" transform="translate(101.000000, 626.000000)">
                <path d="M10.078125,0 L0.703125,0 C0.3148125,0 0,0.3148125 0,0.703125 L0,10.078125 C0,10.4664375 0.3148125,10.78125 0.703125,10.78125 L10.078125,10.78125 C10.4664375,10.78125 10.78125,10.4664375 10.78125,10.078125 L10.78125,0.703125 C10.78125,0.3148125 10.4664375,0 10.078125,0 Z M9.375,9.375 L1.40625,9.375 L1.40625,1.40625 L9.375,1.40625 L9.375,9.375 Z" id="Shape"></path>
                <path d="M6.796875,3.28125 L3.984375,3.28125 C3.5960625,3.28125 3.28125,3.5960625 3.28125,3.984375 L3.28125,6.796875 C3.28125,7.1851875 3.5960625,7.5 3.984375,7.5 L6.796875,7.5 C7.1851875,7.5 7.5,7.1851875 7.5,6.796875 L7.5,3.984375 C7.5,3.5960625 7.1851875,3.28125 6.796875,3.28125 Z" id="Shape"></path>
                <path d="M23.296875,0 L13.921875,0 C13.5335625,0 13.21875,0.3148125 13.21875,0.703125 L13.21875,10.078125 C13.21875,10.4664375 13.5335625,10.78125 13.921875,10.78125 L23.296875,10.78125 C23.6851875,10.78125 24,10.4664375 24,10.078125 L24,0.703125 C24,0.3148125 23.6851875,0 23.296875,0 Z M22.59375,9.375 L14.625,9.375 L14.625,1.40625 L22.59375,1.40625 L22.59375,9.375 Z" id="Shape"></path>
                <path d="M20.015625,3.28125 L17.203125,3.28125 C16.8148125,3.28125 16.5,3.5960625 16.5,3.984375 L16.5,6.796875 C16.5,7.1851875 16.8148125,7.5 17.203125,7.5 L20.015625,7.5 C20.4039375,7.5 20.71875,7.1851875 20.71875,6.796875 L20.71875,3.984375 C20.71875,3.5960625 20.4039375,3.28125 20.015625,3.28125 Z" id="Shape"></path>
                <path d="M10.078125,13.21875 L0.703125,13.21875 C0.3148125,13.21875 0,13.5335625 0,13.921875 L0,23.296875 C0,23.6851875 0.3148125,24 0.703125,24 L10.078125,24 C10.4664375,24 10.78125,23.6851875 10.78125,23.296875 L10.78125,13.921875 C10.78125,13.5335625 10.4664375,13.21875 10.078125,13.21875 Z M9.375,22.59375 L1.40625,22.59375 L1.40625,14.625 L9.375,14.625 L9.375,22.59375 Z" id="Shape"></path>
                <path d="M6.796875,16.5 L3.984375,16.5 C3.5960625,16.5 3.28125,16.8148125 3.28125,17.203125 L3.28125,20.015625 C3.28125,20.4039375 3.5960625,20.71875 3.984375,20.71875 L6.796875,20.71875 C7.1851875,20.71875 7.5,20.4039375 7.5,20.015625 L7.5,17.203125 C7.5,16.8148125 7.1851875,16.5 6.796875,16.5 Z" id="Shape"></path>
                <path d="M23.296875,19.8111094 L19.3125,19.8111094 L19.3125,17.203125 C19.3125,16.8148125 18.9976875,16.5 18.609375,16.5 C18.2210625,16.5 17.90625,16.8148125 17.90625,17.203125 L17.90625,20.5142344 C17.90625,20.9025469 18.2210625,21.2173594 18.609375,21.2173594 L22.59375,21.2173594 L22.59375,22.59375 L18.609375,22.59375 C18.2210625,22.59375 17.90625,22.9085625 17.90625,23.296875 C17.90625,23.6851875 18.2210625,24 18.609375,24 L23.296875,24 C23.6851875,24 24,23.6851875 24,23.296875 L24,20.5142344 C24,20.1259219 23.6851875,19.8111094 23.296875,19.8111094 Z" id="Shape"></path>
                <path d="M23.296875,13.21875 C22.9085625,13.21875 22.59375,13.5335625 22.59375,13.921875 L22.59375,17.203125 C22.59375,17.5914375 22.9085625,17.90625 23.296875,17.90625 C23.6851875,17.90625 24,17.5914375 24,17.203125 L24,13.921875 C24,13.5335625 23.6851875,13.21875 23.296875,13.21875 Z" id="Shape"></path>
                <path d="M17.203125,13.21875 L13.921875,13.21875 C13.5335625,13.21875 13.21875,13.5335625 13.21875,13.921875 L13.21875,17.203125 C13.21875,17.5914375 13.5335625,17.90625 13.921875,17.90625 C14.3101875,17.90625 14.625,17.5914375 14.625,17.203125 L14.625,14.625 L17.203125,14.625 C17.5914375,14.625 17.90625,14.3101875 17.90625,13.921875 C17.90625,13.5335625 17.5914375,13.21875 17.203125,13.21875 Z" id="Shape"></path>
                <path d="M13.921875,19.8111094 C13.5335625,19.8111094 13.21875,20.1259219 13.21875,20.5142344 L13.21875,23.296875 C13.21875,23.6851875 13.5335625,24 13.921875,24 C14.3101875,24 14.625,23.6851875 14.625,23.296875 L14.625,20.5142344 C14.625,20.1259219 14.3101875,19.8111094 13.921875,19.8111094 Z" id="Shape"></path>
            </g>
        </g>
    </g>
</svg>